<svg  xmlns="http://www.w3.org/2000/svg" xmlns:xlink="http://www.w3.org/1999/xlink" width="969" height="300" viewBox="0 0 993 324"><path transform="translate(0 100)" d="M53.2,-32.4L63.7,-32.6Q69.5,-32.6 75.7,-33.7Q77.5,-47 80.1,-55.5Q69.2,-54.2 54,-53.3L53.2,-32.4ZM24.8,-29.9Q29.5,-30.6 35.15,-31Q40.8,-31.4 45.2,-32Q45.2,-34.3 46,-53Q40.2,-53 26.2,-50.9L21,-50.2L21,-50.8Q22.2,-45.3 22.95,-39.75Q23.7,-34.2 24.8,-29.9ZM50.2,11.6L48.1,11.6Q46.9,11.2 45,8.4L44.9,7.1Q44.9,-4 45,-7L44.9,-23.8L43.1,-23.8Q33.9,-22.8 32.9,-22.8Q28.1,-22.5 23,-21.2L18.5,-23.4Q16.3,-31.6 15.1,-39.35Q13.9,-47.1 12.6,-55Q13.3,-59.2 18.1,-59.2Q19.5,-58 19.8,-58L20.1,-58.1Q35.3,-60.5 46.6,-60.9Q46.7,-62.1 46.7,-71.4L46.1,-79.5Q46.9,-81.8 49,-82.4L51,-82.4Q52.4,-81.7 52.8,-81.1Q53.4,-80.7 54,-79.3L53.9,-77.4Q53.9,-76.3 54.05,-75.4Q54.2,-74.5 54.35,-73.5Q54.5,-72.5 54.7,-71.5Q54.7,-61.6 54.6,-61.1Q56,-61.1 69.5,-62.5Q79.4,-63.3 84.9,-63.9Q88.3,-62.5 89,-60.3L89,-58.3Q86.7,-50 85.25,-41.8Q83.8,-33.6 81.6,-25.1L78.6,-23.9L75.6,-25.6L75.6,-25.7Q67.1,-24.5 63.7,-24.5Q54.1,-24.5 53,-24.4Q53,-7.2 53.1,-3.8L53,6.1L53.1,8.5Q52.8,10.6 50.2,11.6Z"></path><path transform="translate(100 100)" d="M50.5,-29Q59.9,-39 64.3,-55.7L64,-55.7Q58.6,-54.7 51.1,-53.9Q41.8,-52.6 35.4,-52.3L35.4,-52.5Q43.7,-37.5 51,-29.1L50.5,-29ZM12.3,6.3L9.6,4.6Q8.6,3.6 8.6,1.1Q9.3,-0.6 10.35,-1.1Q11.4,-1.6 12.1,-2.3Q30.4,-8.1 44.5,-22.3L45.4,-23.5Q33.3,-37 27.6,-51.4L27.1,-51.4Q23.1,-50.8 19.1,-50.35Q15.1,-49.9 10.8,-48.8L7.9,-50.4Q7.4,-51.3 7.3,-51.65Q7.2,-52 7.1,-53.9Q7.4,-55.7 10.3,-57Q21.5,-58.9 35.3,-60.3Q41.8,-60.9 45,-61.3Q46.2,-60.5 46.5,-60.5L46.6,-60.6Q46.6,-61 45.7,-62.2Q44.9,-66.1 43.7,-69.55Q42.5,-73 41.7,-76.6Q42.1,-79.4 44.7,-79.9L46.6,-79.9Q48.5,-79 49.05,-77.8Q49.6,-76.6 50.4,-75.7Q51.4,-72.4 52.4,-69.1Q53.4,-65.8 53.5,-61.9L53.1,-61.9Q61.6,-63.7 70.45,-64.2Q79.3,-64.7 88.1,-65.4Q90.6,-64.8 91.2,-62.5L91.2,-60.4Q90.2,-58.5 88.1,-57.5L72.5,-56.2Q70.8,-47.6 66.8,-39.2Q62.2,-29.5 56.2,-23.4Q69.5,-9.7 91.5,-2.6Q92.4,-1.1 92.4,1Q91.9,3.6 88.2,4.3Q66.3,-1.7 50.9,-17.5Q44.4,-9.8 34.5,-4Q26.3,1.8 12.3,6.3Z"></path><path transform="translate(200 100)" d="M21.3,-4.9Q18.9,-5.2 18,-9.1Q22,-15.9 25.75,-22.3Q29.5,-28.7 31.7,-35.2Q23.1,-45.6 20,-48.7L20,-50.9Q20.6,-52.9 22.9,-53.8L25.3,-53.8Q28.7,-51.5 31.1,-48.5Q33.5,-45.5 34.5,-44.4Q35.1,-46.8 35.9,-51.75Q36.7,-56.7 38.2,-61.5Q40,-62.5 41.8,-62.5Q44,-62 44.9,-59.6Q44.9,-51.3 40.5,-36.1Q42.5,-32.7 44.95,-29.1Q47.4,-25.5 48.9,-21Q48.5,-18.3 44.6,-17.5Q43.3,-18.2 41.9,-18.8Q40.1,-21.2 38.75,-23.65Q37.4,-26.1 37,-26.7Q34.9,-22.5 31.95,-16.7Q29,-10.9 24.8,-5.6Q23.3,-4.9 21.3,-4.9ZM50.3,-3L47.2,-4.9L46.3,-7.9Q56.5,-23 59.1,-32.6Q56.8,-36 54.2,-39.9Q51.6,-43.8 47.8,-47.1L47.4,-50.3Q48.7,-52.9 50.5,-53.2L52.5,-53.2Q59.1,-47.6 62.3,-42.4Q63.4,-45.3 64.75,-50.75Q66.1,-56.2 68.1,-61.7Q69.3,-62.7 71.9,-62.7Q74.1,-62.2 75,-59.8Q75,-57.6 71.5,-45.2Q69.6,-38.8 68.1,-32.8Q69.7,-29 73.1,-25.15Q76.5,-21.3 77.3,-15.8Q76.4,-13.3 74.4,-12.7L72.4,-12.7Q70,-13.7 68.9,-16.6Q67.7,-18.8 66.1,-20.85Q64.5,-22.9 64.4,-23.1Q61.9,-15.6 53.1,-4.3L50.3,-3ZM81.7,7.7Q76.4,6.8 71.8,4.3Q67.2,1.8 62.5,-0.7L61.1,-4.1L62.7,-6.9Q63.9,-7.8 66.4,-7.8Q68.7,-6.5 78.7,-1.5L82.1,-34.3Q83.5,-51.5 84.7,-67.5L84.1,-67.5Q66.9,-65.4 49.5,-64.15Q32.1,-62.9 16.1,-60.7Q16.1,-47 18.5,-24L18.5,-14.2L19.1,-10.2Q19.1,-2.5 19.5,1.9Q18.7,4.9 16.4,4.9L14.7,4.9L12.7,4.1Q11.2,2.1 11.2,-1.8L11.2,-10L10.6,-14L10.6,-23.8Q8.4,-45.8 8,-63.9Q8.1,-65 8.6,-65.7Q9,-68.3 13,-68.3Q31.9,-70.8 50.75,-72.3Q69.6,-73.8 88.8,-75.5L91.9,-73.6Q92.8,-72.4 92.8,-71.1L92.8,-68Q91.2,-49.5 89.8,-30.9Q88.4,-12.3 84.5,6.6L81.7,7.7Z"></path><path transform="translate(300 100)" d="M11.4,-38.3Q10.4,-38.6 9.55,-39.4Q8.7,-40.2 8.55,-40.9Q8.4,-41.6 8.1,-42.4Q9.8,-47 11.65,-51.15Q13.5,-55.3 14.7,-59.5L14.5,-61.2Q14.8,-63.2 17.3,-64.4L48,-66.9Q47.2,-68.9 45.4,-72.05Q43.6,-75.2 42.2,-78.8Q43,-81.7 45.3,-82L47.4,-82Q51.7,-78.9 54.4,-72.3Q54.7,-71.1 55.25,-70.05Q55.8,-69 55.8,-67.5L55.8,-67.4Q59,-67.4 70.9,-69.3Q79.1,-70.5 87.6,-71L88.1,-70.8L89.9,-71Q92.3,-70.1 92.9,-68.1L92.9,-66.1Q90.8,-61.7 89.3,-57.3Q87.8,-52.9 85.1,-48.5Q83.2,-47.5 81.6,-47.5Q79.4,-48.1 78.6,-50.5L78.6,-52.4L82.6,-62.4L82.4,-62.4Q67.1,-60.4 51.85,-59.2Q36.6,-58 22.2,-56.5Q19.5,-47.3 14.9,-39.2Q13.3,-38.3 11.4,-38.3ZM49.6,9.1L48.3,9Q43.7,7 38.8,5.4Q33.9,3.8 29.1,0.9L28,-1.9L29.7,-4.9Q31.1,-5.6 33.3,-5.6Q37.4,-3.7 41.4,-2.1Q45.7,-0.8 49.1,0.4L51.1,-1.4Q54.9,-6.5 54.9,-17.2Q54.9,-19.6 54.6,-20.8Q44,-19.6 32.25,-18.95Q20.5,-18.3 8.6,-16.6Q7,-17.4 5.7,-19.5L5.7,-21.9L8.4,-24.7Q20,-26.1 31.1,-26.9Q42.2,-27.7 52.5,-28.6L52.3,-28.2L50.8,-31.9Q49.6,-34.3 46.2,-36.6Q44.7,-37.4 43.8,-39.2Q43.8,-43.4 46.9,-44.2L48.9,-44.2L52.8,-41.8Q54.6,-43.1 56.85,-45.45Q59.1,-47.8 59.1,-48L61.8,-47.5Q56.8,-46.7 27.2,-41.1L24.6,-42.6Q23.5,-43.7 23.5,-46.3Q24,-47.9 25.9,-48.9Q27.2,-49.4 49.9,-53.5Q61.4,-55.8 73.4,-56.9Q76.1,-56.4 76.6,-53.9L76.6,-51.7Q71.7,-47.1 66.75,-43.25Q61.8,-39.4 57.9,-35.6Q59.8,-31.7 60.6,-29.2L63.2,-29.2Q79.3,-31.4 90.6,-31.9Q92.6,-31 93.5,-28.9L93.5,-26.9Q92.5,-24.3 90.5,-24Q81.6,-23.4 62.7,-21.4L62.8,-13.9Q62.4,-8.6 60.85,-3.15Q59.3,2.3 54.9,6Q54.8,6.3 52.4,8.4Q51.1,9.1 49.6,9.1Z"></path><path transform="translate(400 100)" d="M32.1,-59.1L30,-60Q27,-63.5 21.1,-67.4Q18.2,-69.4 14.6,-72.2L14.6,-75.4Q17.5,-77.7 18.7,-77.7Q24,-75.9 29.6,-71.3Q30.9,-70.4 36.7,-64.6L36.9,-63.3Q36.9,-59.6 32.1,-59.1ZM21.8,5.5L20.3,5.4Q18.2,5.1 17.6,3.8Q16.6,2.4 16.6,1.3Q16.6,0.1 18.6,-2.2L22,-4L21.8,-5.6L22.7,-39.4Q13.3,-37.8 8.7,-36.2Q6.7,-36.9 5.7,-37.65Q4.7,-38.4 4.7,-41.4Q5.2,-43.2 7.9,-44.3Q15.4,-46.5 24.5,-47.7Q25.1,-48 27.5,-48Q28.6,-47.1 29,-46.7Q29.4,-46.3 29.9,-45.9Q30.4,-45.5 30.4,-44.4Q30.4,-43.3 30.6,-42.1Q30.6,-30.3 29.9,-8.3Q31.4,-9.3 41.1,-13.9L44.1,-15.4Q45.3,-15.4 46.35,-14.95Q47.4,-14.5 47.8,-13.55Q48.2,-12.6 48.5,-11.7Q48.5,-10.4 48,-9.5Q47.1,-8.1 38,-3.5Q29.6,0.5 21.8,5.5ZM71.6,9.3L69.8,9.3Q68.1,9 66.8,6.6L66.4,2.9Q66.4,-26.1 66.6,-29.4Q67,-35 67.1,-37.5Q64.2,-37.5 61.1,-36.6L57.9,-36.1Q53.5,-35.4 48.9,-34.3Q47.9,-34.8 47.1,-35.1Q46.3,-35.4 45.7,-36.25Q45.1,-37.1 45.1,-39.5Q45.9,-41.5 48,-42.5L67.1,-45.3Q67.1,-62.4 67.3,-74.3L67.1,-77.4Q67.9,-79.7 69.9,-80.3L72.2,-80.3Q73.5,-79 74.25,-78.35Q75,-77.7 75,-76.65Q75,-75.6 75.2,-74.4Q75.2,-59.6 75,-46.1Q75.8,-46.1 92.1,-47.8Q94.3,-47.8 95.3,-44.9L95.3,-42.7Q94.1,-40.9 92.4,-39.8Q83.8,-38.8 75,-38.2L74.6,-28.8Q74.6,-13.3 74.4,2.1L74.6,6.4Q73.6,9 71.6,9.3Z"></path><path transform="translate(500 100)" d="M44.7,-60.3L43.7,-60.4L41.4,-61.9Q37.8,-65.7 33.7,-69.3Q32.4,-70.9 32.4,-72.5Q32.7,-74 33.5,-75.5Q35.4,-76.7 36.5,-76.7L37.5,-76.6Q40.7,-74.7 48.6,-66.1L48.8,-63.5L47.8,-61.2Q47.1,-61 46.8,-60.85Q46.5,-60.7 45.95,-60.5Q45.4,-60.3 44.7,-60.3ZM70.7,-18.1L69.8,-18.3L67.7,-19.4Q65.3,-30.2 63.85,-40.6Q62.4,-51 60,-61.9L61.1,-63.4Q62.3,-64.9 65.1,-64.9L67.1,-63.6Q70.2,-53.1 71.85,-42.6Q73.5,-32.1 74.8,-21.3L73.8,-19.4Q71.9,-18.1 70.7,-18.1ZM51.4,8.6L50.6,8.5Q45.9,7.6 42.8,3.6Q38.7,-0.5 36.25,-5.95Q33.8,-11.4 31.9,-14.9Q28,-11.2 22.65,-6.9Q17.3,-2.6 10.5,-0L8.2,-1.1Q7.1,-2.9 7.1,-4Q7.1,-4.8 8.1,-6.9Q17.7,-12.8 28.5,-22.8Q24.1,-35.1 23,-44.3L23.2,-44.3Q20.4,-43.2 10.5,-41L8.2,-42.3Q8,-42.9 7.85,-43.1Q7.7,-43.3 7.45,-43.9Q7.2,-44.5 7.2,-45.2Q7.2,-45.9 8.3,-48.2Q15,-50.7 21.8,-52L21.8,-51.8Q20.1,-66.6 20.1,-77.3L21.3,-79.4Q22.4,-80.5 24.1,-80.8Q24.9,-80.8 27.1,-79.6Q28.4,-77.8 28.4,-76.5Q28.3,-75.9 28.1,-71.5Q28.7,-66.8 29,-62.05Q29.3,-57.3 29.8,-54.1Q35.2,-55.3 41.5,-57.05Q47.8,-58.8 54.8,-60.5L56.7,-59.2Q57.9,-57.7 57.9,-56.4Q57.9,-55.5 56.7,-53.4Q46.5,-49.6 30.8,-46Q32.8,-35.8 35.1,-29Q39.8,-34.1 43.4,-38.9Q46,-42.6 48.5,-45.8Q50.2,-47 51.5,-47Q52.4,-46.8 54.1,-45.9Q55.4,-44.6 55.4,-41.4L53.7,-39.1Q45.5,-27.4 38.1,-20.6Q40.8,-15.4 43.25,-10.1Q45.7,-4.8 49.8,-0.8L49.7,-0.9Q51.1,-3 52.15,-6.65Q53.2,-10.3 55.2,-14.3Q55.7,-14.5 56,-14.75Q56.3,-15 56.9,-15.2Q57.5,-15.4 59.1,-15.4Q62,-13.8 62.05,-12.55Q62.1,-11.3 62.1,-10.1L61.5,-8.5Q58.6,1.1 54.5,7.4Q52.7,8.6 51.4,8.6ZM82.8,8.7Q78.5,6.7 74.9,4.15Q71.3,1.6 67.4,-1.1Q66.1,-2.5 66.1,-4.2Q66.1,-5.3 67.1,-7.2Q68.8,-8.4 70.3,-8.4Q71,-8.4 81.1,-1.8L81.4,-10.3Q81,-28.8 80.6,-34.4Q80.6,-50.9 81,-54.6L81,-78.6L82.1,-80.5Q83.6,-81.7 85.9,-81.7L87.9,-80.6L88.9,-78.6Q88.9,-53.4 88.6,-49.8Q88.6,-35.5 88.9,-30Q88.9,-15.8 89.3,-1.5Q88.9,0.1 88.9,3.5Q88.9,8.7 82.8,8.7Z"></path><path transform="translate(0 200)" d="M35.8,0.8L33.7,0.8L31.1,-1.3L30.6,-6.4L30.8,-24.6L31.6,-31.8Q31.6,-47.8 31.4,-62.7L13.6,-62.7Q6.4,-62.7 4,-64L2.8,-67.3L4.4,-70.2Q6,-71 7.9,-71Q9.4,-70.9 14.7,-70.9Q20,-70.9 21.8,-70.8L48.2,-71L58.9,-70.8L63.4,-71Q65.2,-70.7 66.5,-68.1L66.5,-66.2Q65.7,-64.2 63.6,-63.2Q50.7,-62.7 39.3,-62.7Q39.3,-42.9 39.6,-31.6L38.8,-24.4Q38.8,-6.5 38.6,-4.6L38.8,-2.2Q38,0.2 35.8,0.8Z"></path><path transform="translate(69 200)" d="M12.9,0.7L10.8,0.7L10.4,0.5Q8.3,-0.2 8,-2.3L7.6,-9.6L7.9,-23.9L7,-36.5L7,-44.9Q8,-52.1 8,-68.2Q8.7,-70.2 10.8,-71.2L13,-71.2Q15.3,-69.9 16,-68L16,-58L15.1,-44.8L15.1,-39.4Q17.6,-41.4 22.35,-45Q27.1,-48.6 33.5,-48.6Q39.3,-47.2 43.4,-43.1Q46,-38.4 46.05,-33.55Q46.1,-28.7 46.9,-24Q46.9,-7.2 47.2,-2.9Q44.9,0.6 42.7,0.6L39.9,-0.6Q38.9,-2.5 38.7,-4.2Q38.7,-5.7 38.9,-7.3L38.9,-23.8Q38.4,-27.7 38.25,-31.6Q38.1,-35.5 36.8,-38.3Q35.4,-38.9 34.1,-39.7Q32.8,-40.5 31.6,-40.5Q24.7,-38.1 15.8,-28.9Q15.6,-24.1 15.5,-9.6L15.7,-2.2Q14.9,-0.3 12.9,0.7Z"></path><path transform="translate(123 200)" d="M13,-30.6L12.1,-30.6Q18.3,-31.2 24.7,-31.4Q31.1,-31.6 36,-32.1Q35.5,-35.2 32.8,-37.9Q27.9,-40.5 25.5,-40.5Q22.9,-40.5 15.5,-35.8Q14,-33.7 13,-30.6ZM24.2,0.6Q21.4,0.6 15.6,-1.6Q12,-3 8.9,-5.7Q3.1,-11.7 3.1,-19.3Q3.1,-33.5 10.8,-42.4Q14.7,-44.9 18.5,-46.75Q22.3,-48.6 27.6,-48.6Q36.5,-46.4 40.4,-41.5Q44.2,-35.5 44.9,-28.1L43.1,-25.2Q34.8,-23.6 26.65,-23.35Q18.5,-23.1 11.5,-22.7L11.3,-17.2Q12.5,-13.6 14.9,-11Q20.6,-7.4 26.2,-7.4Q34.9,-9.4 44,-17.6L46.2,-17.6Q48.6,-16.9 49.2,-14.7L49.2,-12.5Q46.2,-8.3 42.2,-5.8Q32.3,0.6 24.2,0.6Z"></path><path transform="translate(175 200)" d=""></path><path transform="translate(208 200)" d="M21.7,-36.5Q27.7,-36.9 33.9,-37.5Q40.1,-38.1 45.6,-40.7Q48.4,-42.2 49.3,-45.2Q50.1,-46.5 50.1,-48.1L50,-52.5L49.4,-54.1Q48.2,-58 46.5,-59.3Q34.8,-63.3 23.7,-63.3L15.3,-63.1L16.2,-50.1L16.2,-36.6L21.7,-36.5ZM11.6,0.4L10.6,0.4Q8,-0.5 7.7,-2.7Q7.7,-4.3 8.3,-9.5L8.3,-50Q7.8,-53.2 7.7,-56.7Q7.2,-62 7,-67.6Q7.7,-69.6 9.8,-70.6L24.6,-71.5L28.5,-71.4Q34.8,-70.2 41.35,-69.3Q47.9,-68.4 53.3,-64.1Q58.1,-57.6 58.1,-48L58,-45.4Q56.2,-39.6 52,-35.4Q44.3,-30.1 35.55,-29.5Q26.8,-28.9 16.2,-28.5Q16.2,-11.8 16.1,-5.2Q16,-0.3 11.6,0.4Z"></path><path transform="translate(269 200)" d="M11.1,0.8L9.7,0.8Q9.4,0.5 9.2,0.4Q9,0.3 8.2,-0.4Q7.4,-1.1 7.2,-2.2L7,-6.9L8.3,-39.6L7.8,-44.5Q7.8,-48.4 12.9,-48.4Q14.3,-48.4 15.3,-47.4Q16.3,-46.4 16.5,-45.3Q16.5,-41.5 16.4,-41.1Q23.6,-47.1 33.3,-48.4Q36.7,-47.8 38.65,-46.2Q40.6,-44.6 42.5,-42L42.5,-39.6Q41.5,-37.5 39.5,-36.8L37.3,-36.8Q35.2,-37.9 34.15,-38.9Q33.1,-39.9 32,-40.1Q23.7,-37.9 18,-31.1L15.9,-26.9Q15.4,-22 15.15,-15Q14.9,-8 13.9,-0.2Q12.3,0.5 11.1,0.8Z"></path><path transform="translate(314 200)" d="M27.6,-7.4Q30.5,-7.9 33.2,-9.3Q37.9,-11.3 40.3,-14.7Q41.6,-18.1 41.8,-21.65Q42,-25.2 42,-29.3Q40.9,-33.8 37.5,-37.2Q32.7,-40.5 27.8,-40.5Q15,-38.3 12.4,-30.3Q10.9,-25.7 10.9,-23.7Q10.9,-16 16.1,-11.5Q20.9,-7.4 27.6,-7.4ZM25.6,0.6Q15.8,0.2 8.2,-8Q2.9,-14.8 2.9,-25.4Q4.5,-36.5 11.6,-42.4Q19.7,-48.6 30.5,-48.6Q32.2,-48.6 38.4,-46Q41.9,-44.5 44.6,-41.4Q50.1,-35.7 50.1,-26.7Q50.1,-21.8 48.7,-14.8Q47.7,-9.4 42.9,-6Q35.3,0.6 25.6,0.6Z"></path><path transform="translate(367 200)" d="M26.5,-56.1L23.2,-57.6Q22.3,-58.9 21.45,-60.05Q20.6,-61.2 20.6,-62.8Q21,-64.7 21.7,-66.15Q22.4,-67.6 23.75,-68.75Q25.1,-69.9 26.45,-70Q27.8,-70.1 29.6,-70.1Q31,-69 32.3,-68.35Q33.6,-67.7 34.5,-65.7L34.7,-62L32.6,-58.3Q30.2,-56.1 26.5,-56.1ZM13.5,19.1L12.4,19.1Q8.6,19.1 5.85,18.4Q3.1,17.7 1,15.1Q-0.3,13.7 -0.65,12.1Q-1,10.5 -1.2,8.6Q0.1,3.8 4.6,3.8Q5.7,4.3 7.3,6.4Q7.3,8.6 7,9.8L7.8,10.6Q8.7,11 11.2,11Q13.7,11 15.2,11.1L18.8,10.2Q22.4,9.3 23.8,3.4Q23.8,-16.7 23.6,-18.2Q23.8,-20.8 23.8,-41.4Q22.9,-44.3 22.9,-45.3Q23.1,-46.4 23.85,-47.15Q24.6,-47.9 25,-48.15Q25.4,-48.4 27.8,-48.6L29.9,-48.4Q32,-46.8 32,-45.4L32,-43.6Q31.6,-41 31.6,3.5Q31.2,10.2 26,15.2Q21.2,18.6 13.5,19.1Z"></path><path transform="translate(406 200)" d="M13,-30.6L12.1,-30.6Q18.3,-31.2 24.7,-31.4Q31.1,-31.6 36,-32.1Q35.5,-35.2 32.8,-37.9Q27.9,-40.5 25.5,-40.5Q22.9,-40.5 15.5,-35.8Q14,-33.7 13,-30.6ZM24.2,0.6Q21.4,0.6 15.6,-1.6Q12,-3 8.9,-5.7Q3.1,-11.7 3.1,-19.3Q3.1,-33.5 10.8,-42.4Q14.7,-44.9 18.5,-46.75Q22.3,-48.6 27.6,-48.6Q36.5,-46.4 40.4,-41.5Q44.2,-35.5 44.9,-28.1L43.1,-25.2Q34.8,-23.6 26.65,-23.35Q18.5,-23.1 11.5,-22.7L11.3,-17.2Q12.5,-13.6 14.9,-11Q20.6,-7.4 26.2,-7.4Q34.9,-9.4 44,-17.6L46.2,-17.6Q48.6,-16.9 49.2,-14.7L49.2,-12.5Q46.2,-8.3 42.2,-5.8Q32.3,0.6 24.2,0.6Z"></path><path transform="translate(458 200)" d="M24.1,0.6Q19.7,-0 15.5,-1.9Q11.3,-3.8 8,-7.3Q4.7,-10.8 3.8,-15.2Q2.9,-19.6 2.9,-24.1Q2.9,-29 4.5,-33.1Q7.7,-40.7 18.8,-46.3Q22.8,-48.4 27.2,-48.4Q36.6,-48.4 44,-40.8Q45.4,-39.1 45.4,-37.2Q45,-34.2 42.3,-33.4L40.3,-33.4Q38.3,-34.9 37.1,-36.25Q35.9,-37.6 34,-38.3Q31.3,-40.2 26.8,-40.2Q24,-40 19.7,-37.5Q12.7,-33.5 11.6,-28.9Q10.9,-26 10.9,-22.2Q11.4,-14.8 14.8,-11.6Q21.4,-7.7 25.5,-7.4Q29.9,-8.1 34.3,-9.9Q38.7,-11.7 43.5,-13.3Q45.4,-12.6 46.7,-10.4L46.7,-8.2Q45.2,-4.9 33.5,-1Q29.1,0.4 24.1,0.6Z"></path><path transform="translate(507 200)" d="M21,0.9Q18.7,0.6 16.6,-0.1Q14.5,-0.8 12.8,-3.2Q11,-6.4 10.85,-9.65Q10.7,-12.9 10.2,-16.2Q10.2,-25.6 10.8,-40.5L7.4,-40.9Q6.5,-40.2 4.8,-40.2Q1.8,-40.2 0.8,-43.2L0.8,-45.7L3.1,-48.4Q5,-48.7 6.3,-48.7Q9.2,-48.5 11.1,-48.5Q11.4,-51.4 11.55,-58.5Q11.7,-65.6 13.1,-69.6Q14.5,-70.7 16.9,-70.7L19.6,-68.5Q19.8,-67.4 20.15,-66.7Q20.5,-66 20.5,-64.4Q19.3,-61.7 19.25,-56Q19.2,-50.3 19.1,-48.7Q20.6,-48.5 27.1,-48.5Q29.3,-47.7 30.1,-45.5L30.1,-43.4Q29.1,-41.1 26,-40.4Q20.4,-40.4 18.8,-40.7Q18.2,-25.6 18.2,-16.4Q18.7,-14 18.8,-11.6Q18.9,-9.2 19.5,-7.7Q20.6,-7.1 25.2,-7.1Q27.3,-7.9 30.4,-12.6Q31.8,-13.4 33.9,-13.4Q36.1,-12.6 36.7,-10.5L36.7,-7.5Q34.2,-4.2 32.9,-2.9Q31.6,-1.6 28.2,0.6L21,0.9Z"></path><path transform="translate(545 200)" d=""></path><path transform="translate(578 200)" d="M13.6,0.4L11.4,0.4L8.8,-1.6L7.9,-6.7L7.8,-39.2Q8.3,-43.5 8.3,-49.2Q8.1,-53.8 8.1,-57.2L8.2,-61.6L6.9,-67.4L8.5,-70.2Q10.1,-71 12.1,-71L12.5,-71Q13.7,-71 13.7,-71.9L13.7,-72.1L12.8,-70.9L17.9,-70.7L32.5,-70.9Q38.6,-70.6 45.1,-70.5Q49.1,-70.3 53,-69.8L55.2,-69.9Q56.2,-69.7 56.7,-69.2Q57.4,-69.2 58.8,-67.8L58.4,-67.4L58.2,-67.5L58.3,-67Q58.3,-62.8 55.2,-62.2L54.2,-62.3L54,-62.1Q34.2,-62.8 15.6,-63.3L15.8,-63.7Q16.1,-62.2 16.1,-56.7Q16.5,-53.8 16.5,-50.9Q16.5,-45.6 16.1,-40.5L16.7,-41.7L27.1,-41L33.7,-41.2L37.6,-41L46,-41.3Q48.2,-40.6 49,-38.4L49,-36.4Q47.8,-34.1 46,-33.6L43.4,-33.5Q43.3,-33.2 42.1,-33.2Q34.2,-33.2 30.2,-33.1L30.2,-33.2Q21.8,-33.2 15.7,-33.8L15.7,-25.3Q15.9,-16.3 15.9,-7.5Q16.5,-6.3 16.5,-2.7Q16.2,-0.5 13.6,0.4Z"></path><path transform="translate(639 200)" d="M27.6,-7.4Q30.5,-7.9 33.2,-9.3Q37.9,-11.3 40.3,-14.7Q41.6,-18.1 41.8,-21.65Q42,-25.2 42,-29.3Q40.9,-33.8 37.5,-37.2Q32.7,-40.5 27.8,-40.5Q15,-38.3 12.4,-30.3Q10.9,-25.7 10.9,-23.7Q10.9,-16 16.1,-11.5Q20.9,-7.4 27.6,-7.4ZM25.6,0.6Q15.8,0.2 8.2,-8Q2.9,-14.8 2.9,-25.4Q4.5,-36.5 11.6,-42.4Q19.7,-48.6 30.5,-48.6Q32.2,-48.6 38.4,-46Q41.9,-44.5 44.6,-41.4Q50.1,-35.7 50.1,-26.7Q50.1,-21.8 48.7,-14.8Q47.7,-9.4 42.9,-6Q35.3,0.6 25.6,0.6Z"></path><path transform="translate(692 200)" d="M11.1,0.8L9.7,0.8Q9.4,0.5 9.2,0.4Q9,0.3 8.2,-0.4Q7.4,-1.1 7.2,-2.2L7,-6.9L8.3,-39.6L7.8,-44.5Q7.8,-48.4 12.9,-48.4Q14.3,-48.4 15.3,-47.4Q16.3,-46.4 16.5,-45.3Q16.5,-41.5 16.4,-41.1Q23.6,-47.1 33.3,-48.4Q36.7,-47.8 38.65,-46.2Q40.6,-44.6 42.5,-42L42.5,-39.6Q41.5,-37.5 39.5,-36.8L37.3,-36.8Q35.2,-37.9 34.15,-38.9Q33.1,-39.9 32,-40.1Q23.7,-37.9 18,-31.1L15.9,-26.9Q15.4,-22 15.15,-15Q14.9,-8 13.9,-0.2Q12.3,0.5 11.1,0.8Z"></path><path transform="translate(737 200)" d=""></path><path transform="translate(770 200)" d="M22.4,0.8L19.8,-1.2Q15.4,-17.7 11.5,-33.85Q7.6,-50 2.8,-67.8Q3.8,-70.6 5.9,-70.9L8.5,-70.9Q9.5,-70.7 10.35,-69.85Q11.2,-69 11.4,-67.9Q11.4,-66.1 11.2,-65.6Q18.4,-40.9 23.8,-17.8Q25.1,-24.1 29.55,-37.2Q34,-50.3 40.3,-69.6Q41.3,-70.6 42.1,-70.6L42.3,-70.7L44,-70.7Q46.1,-70.4 47,-67.9Q50.3,-49.2 54.4,-36.8Q58.5,-24.4 60.7,-17.5Q65.1,-27.1 70.05,-42.15Q75,-57.2 80.4,-70Q81.9,-70.9 84,-70.9Q86.1,-70.6 87,-68L87,-65.9Q71.2,-22.3 64.5,-5.3Q64.8,-5 64.8,-2.4Q64.2,-0.3 61.9,0.6L60,0.6Q58,-0 56.9,-2.6Q54,-13.3 49.75,-26.2Q45.5,-39.1 42.3,-49.7Q37.7,-38.8 34.1,-25.4Q30.5,-12 26.4,-0.2Q25.1,0.7 22.4,0.8Z"></path><path transform="translate(860 200)" d="M13,-30.6L12.1,-30.6Q18.3,-31.2 24.7,-31.4Q31.1,-31.6 36,-32.1Q35.5,-35.2 32.8,-37.9Q27.9,-40.5 25.5,-40.5Q22.9,-40.5 15.5,-35.8Q14,-33.7 13,-30.6ZM24.2,0.6Q21.4,0.6 15.6,-1.6Q12,-3 8.9,-5.7Q3.1,-11.7 3.1,-19.3Q3.1,-33.5 10.8,-42.4Q14.7,-44.9 18.5,-46.75Q22.3,-48.6 27.6,-48.6Q36.5,-46.4 40.4,-41.5Q44.2,-35.5 44.9,-28.1L43.1,-25.2Q34.8,-23.6 26.65,-23.35Q18.5,-23.1 11.5,-22.7L11.3,-17.2Q12.5,-13.6 14.9,-11Q20.6,-7.4 26.2,-7.4Q34.9,-9.4 44,-17.6L46.2,-17.6Q48.6,-16.9 49.2,-14.7L49.2,-12.5Q46.2,-8.3 42.2,-5.8Q32.3,0.6 24.2,0.6Z"></path><path transform="translate(912 200)" d="M31.7,-7.4Q34,-7.9 39.1,-10.1Q42.3,-12.2 44.4,-14.7Q45.7,-18.1 45.85,-21.65Q46,-25.2 46,-29.3Q45,-33.8 41.6,-37.2Q36.6,-40.5 31.9,-40.5Q18.9,-38.3 16.5,-30.2Q15.6,-27.3 15.1,-25.2L15.1,-22.4Q15.4,-15.7 20.1,-11.55Q24.8,-7.4 31.7,-7.4ZM29.7,0.6Q20.3,0.2 15.1,-5.2L15.1,-5.9Q15.8,-4.8 15.8,-3.5L15.5,-2.6Q15,-1 12.6,0.4L10.5,0.4Q8.6,-0.2 7.7,-2.4L7,-4.4L7,-37.8L7.4,-41.4Q7.4,-51.9 7.6,-62.6Q8.2,-64.4 8.2,-66.35Q8.2,-68.3 9.8,-70.2Q11.5,-70.9 13,-70.9Q14.3,-70.9 15.1,-69.9Q15.9,-68.9 16.1,-67.9L16.1,-64.8L15.6,-62.3L15.6,-42.8Q15,-42.1 15,-42L15.7,-42.5Q23.8,-48.6 34.6,-48.6Q36.3,-48.6 42.5,-46Q46,-44.5 48.7,-41.4Q54.1,-35.6 54.1,-27Q54.1,-21.5 52.8,-14.8Q51.8,-9.4 47,-6Q39.4,0.6 29.7,0.6Z"></path></svg>