<svg  xmlns="http://www.w3.org/2000/svg" xmlns:xlink="http://www.w3.org/1999/xlink" width="969" height="300" viewBox="0 0 993 324"><path transform="translate(0 100)" d="M52.6,-31.8L63.7,-32Q69.5,-32 76.3,-33.2Q78.1,-46.8 80.9,-56L80.1,-56.1Q69.2,-54.8 53.4,-53.8L52.6,-31.8ZM24.3,-29.2Q29.5,-30 35.15,-30.4Q40.8,-30.8 45.8,-31.4Q45.8,-34.3 46.7,-53.6Q40.1,-53.6 26.1,-51.5L20.4,-50.8Q21.6,-45.2 22.35,-39.65Q23.1,-34.1 24.3,-29.2ZM50.1,11L48.2,11Q47.3,10.7 45.6,8.2L45.5,7Q45.5,-4 45.6,-7L45.5,-24.4L43,-24.4Q33.8,-23.4 32.9,-23.4Q28,-23.1 23,-21.9L19,-23.8Q16.9,-31.7 15.7,-39.45Q14.5,-47.2 13.2,-55Q13.8,-58.6 17.9,-58.6Q19.3,-57.4 19.8,-57.4L20.2,-57.5Q35.3,-59.9 47.1,-60.3Q47.3,-62.1 47.3,-71.4L46.7,-79.4Q47.3,-81.3 49.1,-81.8L50.8,-81.8Q52,-81.3 52.4,-80.7Q52.9,-80.3 53.4,-79.2L53.3,-77.4Q53.3,-76.2 53.45,-75.3Q53.6,-74.4 53.75,-73.4Q53.9,-72.4 54.1,-71.5Q54.1,-61.7 53.9,-60.5Q56.1,-60.5 69.5,-61.9Q79.4,-62.7 84.8,-63.3Q87.8,-62 88.4,-60.2L88.4,-58.4Q86.1,-50.2 84.65,-42Q83.2,-33.8 81.1,-25.6L78.7,-24.5L76.1,-26L76,-26.3Q67,-25.1 63.7,-25.1Q54,-25.1 52.4,-25Q52.4,-7.2 52.5,-3.8L52.4,6.1L52.5,8.4Q52.2,10.1 50.1,11Z"></path><path transform="translate(100 100)" d="M50.9,-28.5L50.8,-28.5Q60.5,-38.7 65.1,-56.3L64,-56.3Q58.5,-55.3 51.1,-54.5Q41.8,-53.2 34.8,-52.8L34.8,-52.4Q43.2,-37.1 50.7,-28.6L50.9,-28.5ZM12.4,5.7L10,4.2Q9.2,3.3 9.2,1.2Q9.7,-0.1 10.7,-0.6Q11.7,-1.1 12.4,-1.7Q30.7,-7.5 44.9,-21.9L46.2,-23.6Q33.8,-37.3 28,-52L27,-52Q23,-51.4 19,-50.95Q15,-50.5 10.9,-49.5L8.4,-50.9Q7.9,-51.6 7.85,-51.85Q7.8,-52.1 7.7,-53.8Q8,-55.3 10.4,-56.4Q21.6,-58.3 35.3,-59.7Q41.8,-60.3 46.7,-60.9L47,-60.7L47.1,-60.8Q47.1,-61.2 46.2,-62.5Q45.5,-66.2 44.3,-69.65Q43.1,-73.1 42.3,-76.7Q42.4,-77.7 43.2,-78.45Q44,-79.2 44.7,-79.3L46.4,-79.3Q48,-78.6 48.55,-77.45Q49.1,-76.3 49.8,-75.4Q50.9,-72.2 51.85,-68.95Q52.8,-65.7 52.9,-62.1L52.4,-61.4L53.1,-61.3Q61.7,-63.1 70.55,-63.6Q79.4,-64.1 88,-64.8Q90.1,-64.3 90.6,-62.4L90.6,-60.5Q89.7,-58.9 88,-58.1L72,-56.7Q70.3,-47.8 66.2,-39.4Q61.7,-29.9 55.3,-23.4Q69.1,-9.2 91.1,-2.1Q91.8,-1 91.8,1Q91.5,3.2 88.2,3.7Q66.6,-2.3 50.8,-18.4Q44,-10.2 34.1,-4.5Q26.1,1.2 12.4,5.7Z"></path><path transform="translate(200 100)" d="M21.4,-5.5Q19.4,-5.8 18.7,-9Q22.5,-15.6 26.3,-22Q30.1,-28.4 32.3,-35.4Q23.6,-46 20.6,-49L20.6,-50.8Q21.1,-52.5 23,-53.2L25.1,-53.2Q28.3,-51 30.7,-48.05Q33.1,-45.1 34.7,-43.2Q35.7,-46.6 36.5,-51.55Q37.3,-56.5 38.7,-61.1Q40.1,-61.9 41.8,-61.9Q43.5,-61.5 44.3,-59.5Q44.3,-51.4 39.8,-36Q42,-32.4 44.4,-28.85Q46.8,-25.3 48.3,-21Q48.2,-20 47.4,-19.4Q46.6,-18.8 46.05,-18.55Q45.5,-18.3 44.7,-18.2L42.3,-19.3Q40.6,-21.6 39.25,-24.05Q37.9,-26.5 36.9,-27.8Q34.3,-22.7 31.4,-17Q28.5,-11.3 24.4,-6.1Q23.1,-5.5 21.4,-5.5ZM50.4,-3.7L47.7,-5.3L46.9,-7.8Q57,-22.8 59.7,-32.7Q57.3,-36.4 54.65,-40.3Q52,-44.2 48.3,-47.4L48,-50.2Q49.1,-52.3 50.5,-52.6L52.3,-52.6Q58.7,-47.2 62.5,-41.1Q63.9,-45.2 65.25,-50.6Q66.6,-56 68.6,-61.4Q69.5,-62.1 71.9,-62.1Q73.6,-61.7 74.4,-59.7Q74.4,-57.7 70.9,-45.3Q69,-38.9 67.4,-32.8Q69.2,-28.6 72.6,-24.85Q76,-21.1 76.7,-15.8Q76,-13.8 74.3,-13.3L72.5,-13.3Q70.4,-14.1 69.5,-16.9Q68.2,-19.2 66.6,-21.25Q65,-23.3 64.2,-24.6Q61.3,-15.9 52.7,-4.8L50.4,-3.7ZM81.7,7.1Q76.6,6.3 72.05,3.75Q67.5,1.2 62.9,-1.2L61.7,-4L63.1,-6.5Q64.1,-7.2 66.3,-7.2Q68.4,-5.9 79.2,-0.6L82.7,-34.3L85.4,-68.1L84,-68.1Q66.9,-66 49.5,-64.75Q32.1,-63.5 15.5,-61.2Q15.5,-46.9 17.9,-23.9L17.9,-14.1L18.5,-10.1Q18.5,-2.4 18.9,1.8Q18.3,4.3 16.4,4.3L14.8,4.3L13.1,3.6Q11.8,1.9 11.8,-1.8L11.8,-10.1L11.2,-14.1L11.2,-23.9Q9,-45.9 8.6,-63.8Q8.7,-64.8 9.1,-65.5Q9.5,-67.7 13.1,-67.7Q31.9,-70.2 50.75,-71.7Q69.6,-73.2 88.6,-74.9L91.5,-73.1Q92.2,-72.2 92.2,-71.1L92.2,-68.1Q90.6,-49.6 89.2,-31Q87.8,-12.4 84,6.1L81.7,7.1Z"></path><path transform="translate(300 100)" d="M11.5,-38.9Q10.7,-39.2 9.95,-39.85Q9.2,-40.5 9.1,-41.1Q9,-41.7 8.8,-42.4Q10.3,-46.8 12.15,-50.95Q14,-55.1 15.3,-59.5L15.1,-61.2Q15.4,-62.8 17.4,-63.8L48.8,-66.3Q47.8,-69.1 46,-72.25Q44.2,-75.4 42.9,-78.9Q43,-79.5 43.3,-80Q44.4,-81.3 45.4,-81.4L47.2,-81.4Q51.2,-78.5 53.9,-72.1Q54.2,-70.9 54.7,-69.85Q55.2,-68.8 55.2,-67.6L54.9,-66.8Q59.1,-66.8 71,-68.7Q79.1,-69.9 87.5,-70.4L88,-70.2L89.8,-70.4Q91.8,-69.7 92.3,-68L92.3,-66.3Q90.3,-61.9 88.75,-57.5Q87.2,-53.1 84.7,-48.9Q83,-48.1 81.7,-48.1Q79.2,-48.8 79.2,-52.3L83.4,-62.9L82.4,-63Q67.1,-61 51.85,-59.8Q36.6,-58.6 21.8,-57Q19,-47.6 14.4,-39.7Q13.2,-38.9 11.5,-38.9ZM49.7,8.5L48.5,8.4Q43.9,6.5 39,4.85Q34.1,3.2 29.6,0.5L28.6,-1.8L30.2,-4.5Q31.3,-5 33.1,-5Q37.1,-3.2 41.2,-1.6Q45.5,-0.3 49.2,1.1Q49.5,0.8 50.2,0.15Q50.9,-0.5 51.6,-0.9Q55.5,-6.3 55.5,-17.2Q55.5,-19.6 55,-21.4Q44,-20.2 32.25,-19.55Q20.5,-18.9 8.7,-17.2Q7.4,-17.8 6.3,-19.6L6.3,-21.6L8.7,-24.2Q20,-25.5 31.15,-26.3Q42.3,-27.1 52.9,-28.1L53,-28.2L51.4,-32.1Q50,-34.7 46.5,-37.1Q45.1,-37.9 44.4,-39.4Q44.4,-43 46.9,-43.6L48.8,-43.6L52.9,-41Q55,-42.6 57.35,-45.1Q59.7,-47.6 61,-48.2L61.8,-48.1Q56.7,-47.3 27.3,-41.8L24.9,-43.1Q24.1,-44 24.1,-46.2Q24.5,-47.5 26.2,-48.4Q27.3,-48.8 50,-52.9Q61.5,-55.2 73.4,-56.3Q74.3,-56.2 75.1,-55.45Q75.9,-54.7 76,-53.8L76,-51.9Q71.3,-47.5 66.35,-43.65Q61.4,-39.8 57.1,-35.8Q59.3,-31.5 60.1,-28.6L63.3,-28.6Q79.3,-30.8 90.5,-31.3Q92.2,-30.5 92.9,-28.8L92.9,-27Q92,-24.9 90.5,-24.6Q81.6,-24 62.1,-22L62.2,-13.9Q61.8,-8.7 60.25,-3.4Q58.7,1.9 54.4,5.6Q54.3,5.9 52,7.9Q51,8.5 49.7,8.5Z"></path><path transform="translate(400 100)" d="M32.2,-59.7L30.3,-60.5Q27.4,-63.9 21.5,-67.9Q18.5,-69.9 15.2,-72.5L15.2,-75.1Q17.7,-77.1 18.6,-77.1Q23.7,-75.4 29.3,-70.8Q30.5,-70 36.2,-64.3L36.3,-63.2Q36.3,-60.2 32.2,-59.7ZM21.7,4.9L20.3,4.8Q18.6,4.5 18.1,3.5Q17.2,2.2 17.2,1.3Q17.2,0.4 19,-1.7L22.7,-3.6L22.4,-5.7L23.3,-40.1Q13.3,-38.4 8.7,-36.9Q7,-37.5 6.15,-38.1Q5.3,-38.7 5.3,-41.3Q5.7,-42.7 8.1,-43.8Q15.5,-45.9 24.7,-47.1Q25.2,-47.4 27.3,-47.4Q28.2,-46.6 28.6,-46.2Q29,-45.8 29.4,-45.5Q29.8,-45.2 29.8,-44.2Q29.8,-43.2 30,-42L30,-30.3L29.2,-7.3Q34.7,-10.2 41.3,-13.3L44.3,-14.8Q45.2,-14.8 46.25,-14.4Q47.3,-14 47.9,-11.6Q47.9,-10.6 47.5,-9.8Q46.7,-8.5 37.8,-4.1Q29.3,-0 21.7,4.9ZM71.5,8.7L69.8,8.7Q68.5,8.4 67.4,6.4L67,2.8Q67,-26.1 67.2,-29.3Q67.6,-34.9 67.7,-38.1Q64.1,-38.1 60.9,-37.2L57.8,-36.7Q53.4,-36 48.9,-35Q48.2,-35.4 47.45,-35.65Q46.7,-35.9 46.2,-36.6Q45.7,-37.3 45.7,-39.4Q46.3,-41 48.1,-41.9L67.7,-44.8Q67.7,-62.4 67.9,-74.3L67.7,-77.3Q68.3,-79.2 70,-79.7L71.9,-79.7Q73.1,-78.6 73.75,-78Q74.4,-77.4 74.4,-76.45Q74.4,-75.5 74.6,-74.3Q74.6,-59.6 74.4,-45.5Q75.9,-45.5 92.2,-47.2Q93,-47.2 93.7,-46.4Q94.4,-45.6 94.7,-44.8L94.7,-42.9Q93.6,-41.4 92.2,-40.4Q83.8,-39.4 74.4,-38.7L74,-28.8Q74,-13.3 73.8,2.1L74,6.3Q73.1,8.4 71.5,8.7Z"></path><path transform="translate(500 100)" d="M44.8,-60.9L43.9,-61L41.8,-62.3Q38.2,-66.2 34.2,-69.7Q33,-71.1 33,-72.4Q33.2,-73.8 34,-75Q35.6,-76.1 36.4,-76.1L37.3,-76Q40.3,-74.3 48,-65.9L48.2,-63.6L47.3,-61.7Q46.8,-61.5 46.5,-61.35Q46.2,-61.2 45.75,-61.05Q45.3,-60.9 44.8,-60.9ZM70.8,-18.7L70,-18.8L68.3,-19.8Q65.9,-30.3 64.45,-40.7Q63,-51.1 60.7,-61.7L61.6,-63.1Q62.6,-64.3 64.9,-64.3L66.6,-63.2Q69.6,-52.9 71.25,-42.45Q72.9,-32 74.2,-21.4L73.4,-19.8Q71.7,-18.7 70.8,-18.7ZM51.5,8L50.7,7.9Q46.3,7 43.3,3.2Q39.2,-0.9 36.8,-6.25Q34.4,-11.6 32,-15.8Q27.6,-11.6 22.3,-7.4Q17,-3.2 10.5,-0.6L8.6,-1.5Q7.7,-3 7.7,-4Q7.7,-4.6 8.5,-6.5Q18,-12.3 29.1,-22.4L29.2,-22.8Q24.7,-35.3 23.6,-44.9L23.1,-44.9Q20.3,-43.8 10.6,-41.7L8.7,-42.7Q8.6,-43.1 8.45,-43.35Q8.3,-43.6 8.05,-44.15Q7.8,-44.7 7.8,-45.2Q7.8,-45.7 8.8,-47.7Q15.1,-50.1 22.4,-51.5L22.4,-51.9Q20.7,-66.7 20.7,-77.2L21.8,-79.1Q22.7,-80 24.2,-80.2Q24.7,-80.2 26.7,-79.2Q27.8,-77.6 27.8,-76.6Q27.7,-75.9 27.5,-71.4Q28.1,-66.8 28.4,-62.05Q28.7,-57.3 29.3,-53.3Q35.4,-54.7 41.65,-56.45Q47.9,-58.2 54.7,-59.8L56.3,-58.7Q57.3,-57.5 57.3,-56.4Q57.3,-55.6 56.3,-53.9Q46.4,-50.2 30.1,-46.4Q32.2,-35.7 34.8,-27.8Q40.2,-33.7 43.9,-38.6Q46.5,-42.3 48.9,-45.3Q50.4,-46.4 51.4,-46.4L52.2,-46.3L53.8,-45.4Q54.8,-44.3 54.8,-41.6L53.2,-39.4Q45.1,-27.8 37.5,-20.8L37.5,-20.4Q40.2,-15.2 42.7,-9.85Q45.2,-4.5 49.5,-0.3L49.9,-0.1Q51.6,-2.8 52.65,-6.45Q53.7,-10.1 55.7,-13.8Q56,-14 56.3,-14.2Q56.6,-14.4 57.1,-14.6Q57.6,-14.8 59,-14.8Q61.4,-13.5 61.45,-12.4Q61.5,-11.3 61.5,-10.2Q57.6,1.5 54,6.9Q52.5,8 51.5,8ZM83,8.1Q78.8,6.2 75.25,3.65Q71.7,1.1 67.8,-1.5Q66.7,-2.8 66.7,-4.2Q66.7,-5.1 67.5,-6.8Q69,-7.8 70.3,-7.8Q70.8,-7.8 81.6,-0.7L82,-10.3Q81.6,-28.9 81.2,-34.4L81.2,-50.8L81.6,-54.5L81.6,-78.5L82.5,-80.1Q83.8,-81.1 85.8,-81.1L87.5,-80.1L88.3,-78.4Q88.3,-53.4 88,-49.8Q88,-35.5 88.3,-30Q88.3,-15.8 88.7,-1.5Q88.3,0.1 88.3,3.5Q88.3,8.1 83,8.1Z"></path><path transform="translate(0 200)" d="M35.7,0.2L33.9,0.2L31.6,-1.6L31.2,-6.4L31.4,-24.5L32.2,-31.7Q32.2,-47.8 32,-63.3L13.6,-63.3Q6.6,-63.3 4.5,-64.4L3.4,-67.3L4.9,-69.8Q6.2,-70.4 7.9,-70.4Q9.4,-70.3 14.7,-70.3Q20,-70.3 21.8,-70.2L48.2,-70.4L58.9,-70.2L63.3,-70.4Q64.8,-70.1 65.9,-67.9L65.9,-66.3Q65.3,-64.7 63.4,-63.8Q50.7,-63.3 38.7,-63.3Q38.7,-42.9 39,-31.7L38.2,-24.5Q38.2,-6.6 38,-4.6L38.2,-2.2Q37.6,-0.3 35.7,0.2Z"></path><path transform="translate(69 200)" d="M12.7,0.1L11,0.1L10.7,-0Q8.9,-0.6 8.6,-2.3L8.2,-9.6L8.5,-23.9L7.6,-36.5L7.6,-44.8Q8.6,-52.1 8.6,-68.1Q9.2,-69.7 11,-70.6L12.9,-70.6Q14.8,-69.5 15.4,-67.9L15.4,-58L14.5,-44.8L14.5,-38.2Q17.9,-41 22.6,-44.5Q27.3,-48 33.5,-48Q39,-46.6 42.9,-42.8Q45.4,-38.3 45.45,-33.5Q45.5,-28.7 46.3,-24Q46.3,-7.2 46.6,-3Q44.6,-0 42.8,-0L40.4,-1Q39.5,-2.7 39.3,-4.3Q39.3,-5.6 39.5,-7.2L39.5,-23.9Q39,-27.8 38.85,-31.75Q38.7,-35.7 37.2,-38.7Q35.7,-39.5 34.3,-40.3Q32.9,-41.1 31.5,-41.1Q24.3,-38.6 15.2,-29.1Q15,-24.1 14.9,-9.6L15.1,-2.3Q14.5,-0.8 12.7,0.1Z"></path><path transform="translate(123 200)" d="M12.2,-30Q18.4,-30.6 24.8,-30.8Q31.2,-31 36.7,-31.5Q36,-35.5 33.1,-38.4Q28.1,-41.1 25.5,-41.1Q22.8,-41.1 15.1,-36.3Q13.4,-33.9 12.2,-30ZM24.2,-0Q21.5,-0 15.8,-2.1Q12.3,-3.5 9.3,-6.2Q3.7,-12 3.7,-19.3Q3.7,-33.3 11.2,-42Q15,-44.3 18.9,-46.2Q22.5,-48 27.6,-48Q36.1,-45.8 39.9,-41.1Q43.6,-35.3 44.3,-28.3L42.8,-25.8Q34.8,-24.2 26.6,-23.95Q18.4,-23.7 10.9,-23.2L10.7,-17.1Q11.9,-13.3 14.5,-10.6Q20.5,-6.8 26.2,-6.8Q35.2,-8.9 44.3,-17Q47.9,-17 48.6,-14.6L48.6,-12.7Q45.8,-8.8 41.9,-6.3Q32.1,-0 24.2,-0Z"></path><path transform="translate(175 200)" d=""></path><path transform="translate(208 200)" d="M21.7,-35.9Q27.8,-36.3 34,-36.9Q40.2,-37.5 45.8,-40.1Q48.9,-41.8 49.8,-44.9Q50.7,-46.4 50.7,-48.1L50.6,-52.6L49.9,-54.3Q48.7,-58.3 46.8,-59.9Q34.9,-63.9 23.7,-63.9L14.7,-63.7L15.6,-50.1L15.6,-36L21.7,-35.9ZM11.5,-0.2L10.7,-0.2Q8.6,-1 8.3,-2.8Q8.3,-4.2 8.9,-9.4L8.9,-50.1Q8.4,-53.2 8.3,-56.8Q7.8,-62.1 7.6,-67.5Q8.2,-69.1 9.9,-70L24.6,-70.9L28.5,-70.8Q34.7,-69.6 41.15,-68.75Q47.6,-67.9 52.8,-63.7Q57.5,-57.4 57.5,-48L57.4,-45.5Q55.6,-39.9 51.6,-35.8Q44.1,-30.7 35.4,-30.1Q26.7,-29.5 15.6,-29.1Q15.6,-11.8 15.5,-5.2Q15.4,-0.8 11.5,-0.2Z"></path><path transform="translate(269 200)" d="M11.1,0.2L10,0.2Q9.8,-0 9.55,-0.1Q9.3,-0.2 8.6,-0.8Q7.9,-1.4 7.8,-2.2L7.6,-6.9L8.9,-39.6L8.4,-44.6Q8.4,-47.8 12.9,-47.8Q14,-47.8 14.9,-46.95Q15.8,-46.1 15.9,-45.2Q15.9,-41.6 15.6,-39.6Q23.8,-46.6 33.3,-47.8Q36.5,-47.3 38.3,-45.75Q40.1,-44.2 41.9,-41.8L41.9,-39.8Q41,-38 39.4,-37.4L37.5,-37.4Q35.5,-38.4 34.45,-39.4Q33.4,-40.4 31.9,-40.7Q23.3,-38.5 17.5,-31.5L15.3,-27Q14.8,-22.1 14.55,-15.1Q14.3,-8.1 13.4,-0.6Q12.1,-0 11.1,0.2Z"></path><path transform="translate(314 200)" d="M27.6,-6.8Q30.7,-7.4 33.4,-8.7Q38.3,-10.8 40.9,-14.4Q42.2,-18 42.4,-21.6Q42.6,-25.2 42.6,-29.3Q41.5,-34.1 37.9,-37.6Q32.9,-41.1 27.8,-41.1Q14.6,-38.8 11.9,-30.5Q10.3,-25.8 10.3,-23.7Q10.3,-15.8 15.7,-11.1Q20.7,-6.8 27.6,-6.8ZM25.6,-0Q16,-0.4 8.6,-8.4Q3.5,-15 3.5,-25.3Q5,-36.2 11.9,-42Q19.9,-48 30.5,-48Q32.1,-48 38.1,-45.5Q41.6,-44 44.1,-41Q49.5,-35.4 49.5,-26.7Q49.5,-21.8 48.1,-14.9Q47.1,-9.8 42.6,-6.4Q35.1,-0 25.6,-0Z"></path><path transform="translate(367 200)" d="M26.7,-56.7L23.6,-58.1Q22.8,-59.2 22,-60.3Q21.2,-61.4 21.2,-62.8Q21.5,-64.5 22.2,-65.85Q22.9,-67.2 24.15,-68.25Q25.4,-69.3 26.65,-69.4Q27.9,-69.5 29.4,-69.5Q30.6,-68.5 31.9,-67.85Q33.2,-67.2 33.9,-65.5L34.1,-62.2L32.2,-58.7Q29.9,-56.7 26.7,-56.7ZM13.5,18.5L12.4,18.5Q8.7,18.5 6.1,17.8Q3.5,17.1 1.4,14.7Q0.2,13.4 -0.1,11.9Q-0.4,10.4 -0.6,8.7Q0.5,4.4 4.4,4.4Q5.3,4.8 6.7,6.6Q6.7,8.6 6.4,10L7.4,11.1Q8.5,11.6 11.1,11.6Q13.7,11.6 15.2,11.7Q17.2,11.2 19.1,10.75Q21,10.3 22.3,8.6Q23.8,5.8 24.4,3.4Q24.4,-16.8 24.2,-18.2Q24.4,-20.8 24.4,-41.5Q23.5,-44.4 23.5,-45.2Q23.6,-46.1 24.25,-46.75Q24.9,-47.4 25.25,-47.6Q25.6,-47.8 27.8,-48L29.6,-47.8Q31.4,-46.5 31.4,-45.4L31.4,-43.7Q31,-41.1 31,3.5Q30.6,10 25.6,14.8Q21,18 13.5,18.5Z"></path><path transform="translate(406 200)" d="M12.2,-30Q18.4,-30.6 24.8,-30.8Q31.2,-31 36.7,-31.5Q36,-35.5 33.1,-38.4Q28.1,-41.1 25.5,-41.1Q22.8,-41.1 15.1,-36.3Q13.4,-33.9 12.2,-30ZM24.2,-0Q21.5,-0 15.8,-2.1Q12.3,-3.5 9.3,-6.2Q3.7,-12 3.7,-19.3Q3.7,-33.3 11.2,-42Q15,-44.3 18.9,-46.2Q22.5,-48 27.6,-48Q36.1,-45.8 39.9,-41.1Q43.6,-35.3 44.3,-28.3L42.8,-25.8Q34.8,-24.2 26.6,-23.95Q18.4,-23.7 10.9,-23.2L10.7,-17.1Q11.9,-13.3 14.5,-10.6Q20.5,-6.8 26.2,-6.8Q35.2,-8.9 44.3,-17Q47.9,-17 48.6,-14.6L48.6,-12.7Q45.8,-8.8 41.9,-6.3Q32.1,-0 24.2,-0Z"></path><path transform="translate(458 200)" d="M24.2,-0Q19.8,-0.6 15.7,-2.45Q11.6,-4.3 8.4,-7.7Q5.2,-11.1 4.35,-15.35Q3.5,-19.6 3.5,-24.1Q3.5,-28.9 5,-32.9Q8.1,-40.2 19.1,-45.7Q22.9,-47.8 27.2,-47.8Q36.4,-47.8 43.5,-40.4Q44.8,-38.9 44.8,-37.3Q44.4,-34.6 42.2,-34L40.5,-34Q38.7,-35.4 37.45,-36.75Q36.2,-38.1 34.3,-38.9Q31.5,-40.8 26.8,-40.8Q23.8,-40.6 19.4,-38Q12.2,-33.9 11,-29.1Q10.3,-26 10.3,-22.2Q10.8,-14.5 14.5,-11.1Q21.2,-7.1 25.6,-6.8Q30,-7.5 34.45,-9.35Q38.9,-11.2 43.5,-12.6Q45,-12.1 46.1,-10.3L46.1,-8.4Q44.7,-5.4 33.3,-1.5Q29,-0.2 24.2,-0Z"></path><path transform="translate(507 200)" d="M21.1,0.3Q18.9,-0 16.85,-0.65Q14.8,-1.3 13.3,-3.5Q11.6,-6.5 11.45,-9.7Q11.3,-12.9 10.8,-16.3Q10.8,-25.6 11.4,-41.1L7.3,-41.5Q6.3,-40.8 4.8,-40.8Q2.3,-40.8 1.4,-43.3L1.4,-45.5L3.4,-47.9Q5.1,-48.1 6.3,-48.1Q9.2,-47.9 11.7,-47.9Q12,-51.3 12.15,-58.4Q12.3,-65.5 13.6,-69.3Q14.7,-70.1 16.7,-70.1L19,-68.1Q19.3,-67.2 19.6,-66.5Q19.9,-65.8 19.9,-64.6Q18.7,-61.9 18.65,-56.1Q18.6,-50.3 18.5,-48.1Q20.5,-47.9 27,-47.9Q28.9,-47.3 29.5,-45.4L29.5,-43.6Q28.6,-41.6 26,-41Q20.4,-41 18.3,-41.4Q17.6,-25.6 17.6,-16.4Q18.1,-14 18.2,-11.5Q18.3,-9 19.1,-7.2Q20.4,-6.5 25.3,-6.5Q27.7,-7.4 30.8,-12.2Q31.9,-12.8 33.8,-12.8Q35.6,-12.2 36.1,-10.4L36.1,-7.7Q33.8,-4.6 32.5,-3.3Q31.2,-2 28,-0L21.1,0.3Z"></path><path transform="translate(545 200)" d=""></path><path transform="translate(578 200)" d="M13.5,-0.2L11.6,-0.2L9.3,-2L8.5,-6.7L8.4,-39.1Q8.9,-43.4 8.9,-49.2Q8.7,-53.8 8.7,-57.2L8.8,-61.6L7.6,-67.3L9,-69.8Q10.3,-70.4 12,-70.4L12.7,-70.3Q13.3,-70.3 13.3,-70.6L13.1,-70.3L17.9,-70.1L32.5,-70.3Q38.6,-70 45.1,-69.9Q49.1,-69.7 53,-69.2L55.1,-69.3Q55.9,-69.2 56.4,-68.6Q57.1,-68.6 57.9,-67.8L57.5,-67.4L57.7,-66.9Q57.7,-63.3 55.1,-62.8L53.9,-62.9L53.7,-62.7Q34.2,-63.4 15.3,-63.9L15.2,-63.8Q15.5,-62.1 15.5,-56.6Q15.9,-53.7 15.9,-50.9Q15.9,-45.6 15.5,-40.6L15.7,-41.1L27.1,-40.4L33.7,-40.6L37.6,-40.4L45.9,-40.7Q47.8,-40.1 48.4,-38.3L48.4,-36.6Q47.4,-34.6 45.9,-34.2L42.9,-34.1Q42.8,-33.8 42.1,-33.8Q34.2,-33.8 30.8,-33.7L30.8,-33.8Q21.9,-33.8 15.1,-34.4L15.1,-25.3Q15.3,-16.3 15.3,-7.3Q15.9,-6.1 15.9,-2.8Q15.6,-1 13.5,-0.2Z"></path><path transform="translate(639 200)" d="M27.6,-6.8Q30.7,-7.4 33.4,-8.7Q38.3,-10.8 40.9,-14.4Q42.2,-18 42.4,-21.6Q42.6,-25.2 42.6,-29.3Q41.5,-34.1 37.9,-37.6Q32.9,-41.1 27.8,-41.1Q14.6,-38.8 11.9,-30.5Q10.3,-25.8 10.3,-23.7Q10.3,-15.8 15.7,-11.1Q20.7,-6.8 27.6,-6.8ZM25.6,-0Q16,-0.4 8.6,-8.4Q3.5,-15 3.5,-25.3Q5,-36.2 11.9,-42Q19.9,-48 30.5,-48Q32.1,-48 38.1,-45.5Q41.6,-44 44.1,-41Q49.5,-35.4 49.5,-26.7Q49.5,-21.8 48.1,-14.9Q47.1,-9.8 42.6,-6.4Q35.1,-0 25.6,-0Z"></path><path transform="translate(692 200)" d="M11.1,0.2L10,0.2Q9.8,-0 9.55,-0.1Q9.3,-0.2 8.6,-0.8Q7.9,-1.4 7.8,-2.2L7.6,-6.9L8.9,-39.6L8.4,-44.6Q8.4,-47.8 12.9,-47.8Q14,-47.8 14.9,-46.95Q15.8,-46.1 15.9,-45.2Q15.9,-41.6 15.6,-39.6Q23.8,-46.6 33.3,-47.8Q36.5,-47.3 38.3,-45.75Q40.1,-44.2 41.9,-41.8L41.9,-39.8Q41,-38 39.4,-37.4L37.5,-37.4Q35.5,-38.4 34.45,-39.4Q33.4,-40.4 31.9,-40.7Q23.3,-38.5 17.5,-31.5L15.3,-27Q14.8,-22.1 14.55,-15.1Q14.3,-8.1 13.4,-0.6Q12.1,-0 11.1,0.2Z"></path><path transform="translate(737 200)" d=""></path><path transform="translate(770 200)" d="M22.6,0.2L20.4,-1.6Q16,-17.9 12.1,-34.05Q8.2,-50.2 3.5,-67.8Q4.3,-70 6,-70.3L8.5,-70.3Q9.2,-70.2 9.95,-69.45Q10.7,-68.7 10.8,-67.8Q10.8,-66.2 10.6,-65.6Q17.8,-40.8 23.8,-15.1Q25.7,-24 30.1,-37.05Q34.5,-50.1 40.9,-69.3Q41.6,-70 42.3,-70L42.5,-70.1L43.9,-70.1Q45.6,-69.8 46.4,-67.8Q49.7,-49 53.85,-36.6Q58,-24.2 60.6,-15.8Q65.6,-26.9 70.55,-41.95Q75.5,-57 80.8,-69.6Q82,-70.3 83.9,-70.3Q85.6,-70 86.4,-67.9L86.4,-66Q70.7,-22.5 63.9,-5.3Q64.2,-4.8 64.2,-2.5Q63.7,-0.8 61.8,-0L60.1,-0Q58.5,-0.5 57.4,-2.8Q54.5,-13.4 50.25,-26.35Q46,-39.3 42.4,-51.4Q37.2,-39 33.6,-25.6Q30,-12.2 25.9,-0.6Q24.9,0.1 22.6,0.2Z"></path><path transform="translate(860 200)" d="M12.2,-30Q18.4,-30.6 24.8,-30.8Q31.2,-31 36.7,-31.5Q36,-35.5 33.1,-38.4Q28.1,-41.1 25.5,-41.1Q22.8,-41.1 15.1,-36.3Q13.4,-33.9 12.2,-30ZM24.2,-0Q21.5,-0 15.8,-2.1Q12.3,-3.5 9.3,-6.2Q3.7,-12 3.7,-19.3Q3.7,-33.3 11.2,-42Q15,-44.3 18.9,-46.2Q22.5,-48 27.6,-48Q36.1,-45.8 39.9,-41.1Q43.6,-35.3 44.3,-28.3L42.8,-25.8Q34.8,-24.2 26.6,-23.95Q18.4,-23.7 10.9,-23.2L10.7,-17.1Q11.9,-13.3 14.5,-10.6Q20.5,-6.8 26.2,-6.8Q35.2,-8.9 44.3,-17Q47.9,-17 48.6,-14.6L48.6,-12.7Q45.8,-8.8 41.9,-6.3Q32.1,-0 24.2,-0Z"></path><path transform="translate(912 200)" d="M31.7,-6.8Q34.2,-7.4 39.4,-9.5Q42.7,-11.8 45,-14.4Q46.3,-18 46.45,-21.6Q46.6,-25.2 46.6,-29.3Q45.6,-34.1 42,-37.6Q36.8,-41.1 31.9,-41.1Q18.5,-38.8 15.9,-30.5Q15,-27.4 14.5,-25.2L14.5,-22.4Q14.8,-15.4 19.7,-11.1Q24.6,-6.8 31.7,-6.8ZM29.7,-0Q20.5,-0.4 14.5,-6.6L14.5,-5.8Q15.2,-4.7 15.2,-3.6Q14.6,-1.4 12.5,-0.2L10.6,-0.2Q9.1,-0.7 8.2,-2.6L7.6,-4.5L7.6,-37.7L8,-41.3Q8,-51.9 8.2,-62.5Q8.8,-64.3 8.8,-66.2Q8.8,-68.1 10.1,-69.7Q11.6,-70.3 13,-70.3Q14,-70.3 14.7,-69.5Q15.4,-68.7 15.5,-67.8L15.5,-64.8L15,-62.3Q15,-43.3 14.8,-41L16,-42Q24,-48 34.6,-48Q36.2,-48 42.2,-45.5Q45.7,-44 48.2,-41Q53.5,-35.3 53.5,-27Q53.5,-21.5 52.2,-14.9Q51.2,-9.8 46.7,-6.4Q39.2,-0 29.7,-0Z"></path></svg>