<svg  xmlns="http://www.w3.org/2000/svg" xmlns:xlink="http://www.w3.org/1999/xlink" width="969" height="300" viewBox="0 0 993 324"><path transform="translate(0 100)" d="M51.4,-30.6L63.7,-30.8Q69.7,-30.8 77.3,-32.2Q79.3,-46.6 82.5,-57L80.1,-57.3Q69,-56 52.2,-55L51.4,-30.6ZM23.5,-27.8Q29.7,-28.8 35.35,-29.2Q41,-29.6 47,-30.4Q47,-34.3 47.9,-54.8Q40.1,-54.8 25.9,-52.7L19.2,-51.8L19.2,-50.6Q20.4,-45 21.15,-39.45Q21.9,-33.9 23.5,-27.8ZM49.9,9.8L48.4,9.8Q48.1,9.7 46.8,7.8L46.7,7Q46.7,-4 46.8,-7L46.7,-25.6L43,-25.6Q33.8,-24.6 32.9,-24.6Q27.8,-24.3 23.2,-23.1L20,-24.6Q18.1,-31.9 16.9,-39.65Q15.7,-47.4 14.4,-55Q14.8,-57.4 17.5,-57.4Q18.9,-56.2 20,-56.2L20.4,-56.3Q35.5,-58.7 48.3,-59.1Q48.5,-62.1 48.5,-71.4L47.9,-79.2Q48.3,-80.3 49.3,-80.6L50.6,-80.6Q51.2,-80.3 51.55,-79.9Q51.9,-79.5 52.2,-79L52.1,-77.4Q52.1,-76.2 52.25,-75.2Q52.4,-74.2 52.55,-73.2Q52.7,-72.2 52.9,-71.3Q52.9,-61.7 52.5,-59.3Q56.1,-59.3 69.7,-60.7Q79.6,-61.5 84.6,-62.1Q86.8,-61.2 87.2,-60L87.2,-58.6Q84.9,-50.4 83.45,-42.2Q82,-34 80.1,-26.4L78.7,-25.9L77.1,-26.8L76.8,-27.7Q67,-26.3 63.7,-26.3Q54,-26.3 51.2,-26Q51.2,-7.2 51.3,-3.8L51.2,6.1L51.3,8.4Q51.2,9.3 49.9,9.8Z"></path><path transform="translate(100 100)" d="M51.1,-27.3L51.6,-27.5Q61.5,-38.1 66.7,-57.5L63.8,-57.5Q58.3,-56.5 50.9,-55.7Q41.6,-54.4 33.6,-54L33.6,-52Q42.2,-36.5 50.1,-27.4L51.1,-27.3ZM12.6,4.3L10.8,3.2Q10.4,2.9 10.4,1.4Q10.7,0.7 11.6,0.3Q12.5,-0.1 13,-0.7Q31.3,-6.5 45.9,-21.1L47.8,-23.6Q34.8,-37.9 28.8,-53.2L27,-53.2Q22.8,-52.6 18.8,-52.15Q14.8,-51.7 11.1,-50.7L9.2,-51.7Q9,-52.1 8.9,-53.8Q9,-54.5 10.8,-55.2Q21.8,-57.1 35.5,-58.5Q42,-59.1 50.1,-60.1Q48.3,-61.3 48,-61.85Q47.7,-62.4 47.4,-62.9Q46.7,-66.6 45.5,-70.05Q44.3,-73.5 43.5,-76.7Q43.6,-77.1 44.1,-77.55Q44.6,-78 44.9,-78.1L46.2,-78.1Q47.2,-77.6 47.65,-76.65Q48.1,-75.7 48.8,-74.8Q49.7,-71.8 50.65,-68.65Q51.6,-65.5 51.7,-62.5L50.4,-60.6L53.1,-60.1Q61.9,-61.9 70.65,-62.4Q79.4,-62.9 88,-63.6Q89.1,-63.3 89.4,-62.2L89.4,-60.9Q88.9,-59.9 87.6,-59.3L71,-57.9Q66.9,-36.9 53.7,-23.4Q68.5,-8.2 90.3,-1.1Q90.6,-0.6 90.6,0.8Q90.4,2.1 88.2,2.5Q67.2,-3.3 50.8,-20.2Q43.2,-11.2 33.5,-5.5Q25.5,0.2 12.6,4.3Z"></path><path transform="translate(200 100)" d="M21.4,-6.7Q21.1,-6.8 20.6,-7.35Q20.1,-7.9 19.9,-8.8Q23.5,-15 27.3,-21.5Q31.1,-28 33.7,-35.6Q24.4,-46.8 21.8,-49.4L21.8,-50.6Q22.1,-51.5 23.2,-52L24.7,-52Q27.5,-50.2 29.8,-47.25Q32.1,-44.3 35.3,-40.8Q36.9,-46.4 37.7,-51.35Q38.5,-56.3 39.7,-60.3Q40.5,-60.7 41.6,-60.7Q42.7,-60.5 43.1,-59.3Q43.1,-51.6 38.6,-35.8Q41,-31.8 43.4,-28.25Q45.8,-24.7 47.1,-20.8Q47,-20.6 46.35,-20.1Q45.7,-19.6 44.9,-19.4L43.1,-20.3Q41.6,-22.2 40.25,-24.65Q38.9,-27.1 36.7,-30Q33.3,-23.3 30.4,-17.6Q27.5,-11.9 23.6,-7.1Q22.9,-6.7 21.4,-6.7ZM50.4,-5.1L48.7,-6.1L48.3,-7.6Q58.2,-22.2 61.1,-32.9Q58.3,-37 55.65,-41Q53,-45 49.5,-48L49.2,-50Q49.9,-51.3 50.7,-51.4L51.9,-51.4Q57.7,-46.4 62.7,-38.3Q65.1,-44.8 66.45,-50.2Q67.8,-55.6 69.6,-60.6Q69.9,-60.9 71.7,-60.9Q72.8,-60.7 73.2,-59.5Q73.2,-57.9 69.7,-45.7Q67.8,-39.3 66.2,-32.6Q68.2,-28 71.5,-24.25Q74.8,-20.5 75.5,-16Q75,-14.8 74.1,-14.5L72.7,-14.5Q71.4,-15.1 70.5,-17.3Q69.2,-19.8 67.6,-21.85Q66,-23.9 64,-27.4Q60.3,-16.5 51.9,-5.8L50.4,-5.1ZM81.5,5.9Q77,5.1 72.55,2.65Q68.1,0.2 63.9,-2L63.1,-4L64.1,-5.7Q64.5,-6 65.9,-6Q67.8,-4.9 80.2,1.2L83.9,-34.1Q85.3,-51.4 86.6,-69.3L84,-69.3Q66.7,-67.2 49.3,-65.95Q31.9,-64.7 14.3,-62.2Q14.3,-46.9 16.7,-23.9L16.7,-14.1L17.3,-10.1Q17.3,-2.4 17.7,1.8Q17.3,3.1 16.4,3.1L15,3.1L13.9,2.6Q13,1.5 13,-1.8L13,-10.1L12.4,-14.1L12.4,-23.9Q10.2,-45.9 9.8,-63.8Q9.9,-64.4 10.3,-65.1Q10.5,-66.5 13.1,-66.5Q32.1,-69 50.95,-70.5Q69.8,-72 88.4,-73.7L90.7,-72.3Q91,-71.8 91,-68.1Q89.4,-49.6 88,-31.1Q86.6,-12.6 83,5.3L81.5,5.9Z"></path><path transform="translate(300 100)" d="M11.7,-40.1Q11.3,-40.2 10.85,-40.65Q10.4,-41.1 10.3,-41.6Q10.2,-42.1 10,-42.4Q11.5,-46.4 13.35,-50.55Q15.2,-54.7 16.5,-59.3L16.3,-61.2Q16.4,-62 17.8,-62.6L50.6,-65.3Q48.8,-69.7 47,-72.85Q45.2,-76 44.1,-78.9L44.3,-79.2Q45,-80.1 45.4,-80.2L46.8,-80.2Q50.2,-77.7 52.7,-71.7Q53,-70.5 53.5,-69.55Q54,-68.6 54,-67.8L53.3,-65.6Q59.1,-65.6 71.2,-67.5Q79.3,-68.7 87.3,-69.2L87.8,-69L89.6,-69.2Q90.8,-68.7 91.1,-67.8L91.1,-66.5Q89.1,-62.3 87.65,-58Q86.2,-53.7 83.9,-49.9Q82.8,-49.3 81.9,-49.3Q80.4,-49.7 80.4,-52.1L85.2,-64.1L82.4,-64.2Q66.9,-62.2 51.65,-61Q36.4,-59.8 20.8,-58.2Q17.8,-48 13.6,-40.5Q12.8,-40.1 11.7,-40.1ZM49.7,7.3L48.7,7.2Q44.3,5.3 39.5,3.75Q34.7,2.2 30.6,-0.3L30,-1.8L31,-3.5Q31.5,-3.8 32.9,-3.8Q36.7,-2 40.8,-0.4Q45.1,0.9 49.4,2.5L52.4,-0.1Q56.7,-5.9 56.7,-17.2Q56.7,-19.8 56,-22.8Q43.8,-21.4 32.05,-20.75Q20.3,-20.1 8.9,-18.4Q8.2,-18.8 7.5,-20L7.5,-21.2L9.3,-23Q20.2,-24.3 31.25,-25.1Q42.3,-25.9 53.7,-26.9L54.2,-28.2L52.4,-32.7Q51,-35.5 47.1,-38.1Q46.1,-38.7 45.6,-39.6Q45.6,-42 47.1,-42.4L48.4,-42.4L52.9,-39.6Q55.8,-41.8 58.15,-44.2Q60.5,-46.6 64.8,-48.8L61.8,-49.3Q56.5,-48.5 27.5,-43L25.7,-44.1Q25.3,-44.4 25.3,-46Q25.5,-46.7 26.6,-47.15Q27.7,-47.6 50.2,-51.7Q61.7,-54 73.4,-55.1Q73.7,-55 74.2,-54.55Q74.7,-54.1 74.8,-53.8L74.8,-52.5Q70.5,-48.5 65.55,-44.65Q60.6,-40.8 55.7,-36Q58.1,-31.1 59.3,-27.4L63.3,-27.4Q79.5,-29.6 90.3,-30.1Q91.2,-29.7 91.7,-28.6L91.7,-27.2Q91.2,-25.9 90.3,-25.8Q81.4,-25.2 60.9,-23L61,-13.9Q60.6,-8.9 59.15,-3.8Q57.7,1.3 53.4,5Q53.3,5.3 51.4,6.9Q50.6,7.3 49.7,7.3Z"></path><path transform="translate(400 100)" d="M32.4,-60.9L31.1,-61.5Q28.2,-64.9 22.1,-68.9Q19.3,-70.9 16.4,-73.1L16.4,-74.5Q18.1,-75.9 18.4,-75.9Q23.1,-74.3 28.5,-69.8Q29.7,-69 35,-63.7L35.1,-63.2Q35.1,-61.2 32.4,-60.9ZM21.3,3.7L20.5,3.6Q19.4,3.5 19.1,2.9Q18.4,1.8 18.4,1.3Q18.4,0.8 19.8,-0.7L23.9,-3L23.6,-5.7Q24.1,-23.2 24.5,-41.5Q13.4,-39.7 8.7,-38.1Q7.6,-38.5 7.05,-38.9Q6.5,-39.3 6.5,-41.1Q6.7,-41.9 8.5,-42.6Q15.7,-44.7 25.1,-45.9Q25.6,-46.2 26.9,-46.2Q28.6,-44.8 28.6,-44Q28.6,-43.2 28.8,-42Q28.8,-30.3 28,-5.3Q34.6,-8.9 41.9,-12.3L44.5,-13.6Q45,-13.6 45.6,-13.3Q46.2,-13 46.7,-11.4Q46.7,-10.8 46.5,-10.4Q45.9,-9.5 37.3,-5.25Q28.7,-1 21.3,3.7ZM71.5,7.5L70,7.5Q69.3,7.4 68.6,6L68.2,2.8Q68.2,-26.1 68.4,-29.3Q68.8,-34.9 68.9,-39.3Q63.9,-39.3 60.7,-38.4Q59.2,-38.1 57.6,-37.9Q53.2,-37.2 49.1,-36.2Q48.6,-36.4 48.05,-36.65Q47.5,-36.9 47.2,-37.3Q46.9,-37.7 46.9,-39.2Q47.3,-40.2 48.5,-40.7L68.9,-43.8Q68.9,-62.4 69.1,-74.3L68.9,-77.1Q69.3,-78.2 70.2,-78.5L71.5,-78.5Q72.3,-77.6 73.1,-77Q73.2,-77 73.2,-76.25Q73.2,-75.5 73.4,-74.3Q73.4,-59.6 73.2,-44.3Q77.4,-44.3 80.8,-44.8L92.2,-46Q92.4,-46 92.9,-45.5Q93.4,-45 93.5,-44.6L93.5,-43.3Q92.8,-42.2 91.8,-41.6Q83.6,-40.6 73.2,-39.9L72.8,-28.8Q72.8,-13.3 72.6,2.1L72.8,6.1Q72.3,7.4 71.5,7.5Z"></path><path transform="translate(500 100)" d="M44.8,-62.1L44.3,-62.2L42.6,-63.3Q39,-67 35,-70.5Q34.2,-71.5 34.2,-72.4Q34.4,-73.4 34.8,-74.2Q36,-74.9 36.4,-74.9L36.9,-74.8Q39.5,-73.3 46.8,-65.3L47,-63.8L46.5,-62.7Q46.4,-62.7 46.1,-62.55Q45.8,-62.4 45.45,-62.25Q45.1,-62.1 44.8,-62.1ZM70.8,-19.9L70.4,-20L69.3,-20.6Q67.1,-30.5 65.65,-40.9Q64.2,-51.3 61.9,-61.5L62.6,-62.3Q63.2,-63.1 64.5,-63.1L65.6,-62.4Q68.4,-52.7 70.05,-42.25Q71.7,-31.8 73,-21.6L72.4,-20.6Q71.3,-19.9 70.8,-19.9ZM51.5,6.8L50.9,6.7Q46.9,6 44.1,2.4Q40.2,-1.5 37.8,-6.85Q35.4,-12.2 32.4,-17.8Q26.8,-12.6 21.6,-8.4Q16.4,-4.2 10.5,-2L9.4,-2.5Q8.9,-3.4 8.9,-4Q8.9,-4.4 9.5,-5.7Q18.8,-11.3 30.1,-21.8L30.4,-22.8Q25.9,-35.5 24.6,-46.1L22.9,-46.1Q19.9,-45 10.8,-42.9L9.7,-43.5Q9.6,-43.7 9.45,-43.95Q9.3,-44.2 9.15,-44.55Q9,-44.9 9,-45.2Q9,-45.5 9.6,-46.7Q15.5,-48.9 23.6,-50.5L23.6,-51.9Q21.9,-66.7 21.9,-76.8Q22.4,-77.6 22.85,-78.2Q23.3,-78.8 24.2,-79Q24.5,-79 25.9,-78.2Q26.6,-77.2 26.6,-76.6Q26.5,-76.1 26.3,-71.4Q26.9,-66.6 27.2,-61.85Q27.5,-57.1 28.3,-51.9Q35.6,-53.5 41.95,-55.25Q48.3,-57 54.5,-58.6Q56.1,-57.5 56.1,-56.4Q56.1,-56 55.5,-54.9Q46,-51.4 28.7,-47.4Q31,-35.3 34.4,-25.6Q41.2,-32.9 44.9,-37.8L49.7,-44.5Q50.8,-45.2 51.4,-45.2Q51.8,-45.1 53,-44.4Q53.6,-43.9 53.6,-42L52.2,-40.2Q44.1,-28.6 36.3,-21.4L36.3,-20.2Q39.2,-14.6 41.7,-9.15Q44.2,-3.7 48.7,0.7L50.3,1.5Q52.8,-2.2 53.85,-5.95Q54.9,-9.7 56.5,-13Q56.6,-13 57.05,-13.3Q57.5,-13.6 58.6,-13.6Q60.2,-12.7 60.25,-12Q60.3,-11.3 60.3,-10.4L59.8,-9.1Q57,0.3 53.2,6.1Q52.1,6.8 51.5,6.8ZM83.2,6.9Q79.4,5.2 75.85,2.65Q72.3,0.1 68.6,-2.5Q67.9,-3.2 67.9,-4.2Q67.9,-4.9 68.5,-6Q69.4,-6.6 70.3,-6.6Q70.4,-6.6 82.8,1.5L83.2,-10.3Q82.8,-28.9 82.4,-34.4L82.4,-50.8L82.8,-54.5L82.8,-78.1L83.5,-79.3Q84.2,-79.9 85.4,-79.9L86.5,-79.3L87.1,-78.2Q87.1,-53.4 86.8,-49.8Q86.8,-35.5 87.1,-30Q87.1,-15.8 87.5,-1.7Q87.1,-0.1 87.1,3.4Q87.1,6.9 83.2,6.9Z"></path><path transform="translate(0 200)" d="M35.5,-1L34.3,-1L32.8,-2.2L32.4,-6.4L32.6,-24.5L33.4,-31.7Q33.4,-47.8 33.2,-64.5L13.6,-64.5Q6.8,-64.5 5.5,-65.2L4.8,-67.1L5.7,-68.8Q6.4,-69.2 7.9,-69.2Q9.4,-69.1 14.7,-69.1Q20,-69.1 21.8,-69L48.2,-69.2L58.9,-69L63.3,-69.2Q64,-69.1 64.7,-67.7L64.7,-66.5Q64.3,-65.5 63.2,-65Q50.7,-64.5 37.5,-64.5Q37.5,-42.9 37.8,-31.7L37,-24.5Q37,-6.6 36.8,-4.6L37,-2.4Q36.6,-1.3 35.5,-1Z"></path><path transform="translate(69 200)" d="M12.5,-1.1L11.2,-1.1Q9.9,-1.8 9.8,-2.5L9.4,-9.6L9.7,-23.9L8.8,-36.5L8.8,-44.8Q9.8,-52 9.8,-67.9Q10.2,-68.9 11.2,-69.4L12.5,-69.4Q13.8,-68.7 14.2,-67.7L14.2,-58L13.3,-44.8L13.3,-35.6Q18.7,-40 23.2,-43.4Q27.7,-46.8 33.3,-46.8Q38.4,-45.6 41.9,-42Q44.2,-37.9 44.25,-33.2Q44.3,-28.5 45.1,-23.8Q45.1,-7.2 45.4,-3.4Q44,-1.2 43,-1.2L41.2,-2Q40.7,-3.1 40.5,-4.3Q40.5,-5.6 40.7,-7.2L40.7,-23.9Q40.2,-27.8 40.05,-31.85Q39.9,-35.9 38.2,-39.7Q36.3,-40.5 34.8,-41.4Q33.3,-42.3 31.3,-42.3Q23.7,-39.6 14,-29.7Q13.8,-24.1 13.7,-9.6L13.9,-2.5Q13.5,-1.6 12.5,-1.1Z"></path><path transform="translate(123 200)" d="M12.2,-28.8Q18.4,-29.4 24.8,-29.6Q31.2,-29.8 38.1,-30.5Q37.2,-36.1 33.9,-39.4Q28.3,-42.3 25.5,-42.3Q22.4,-42.3 14.3,-37.1Q12.4,-34.5 10.6,-28.8L12.2,-28.8ZM24.2,-1.2Q21.7,-1.2 16.2,-3.3Q12.9,-4.5 10.1,-7Q4.9,-12.4 4.9,-19.3Q4.9,-32.9 12,-41Q15.6,-43.3 19.5,-45.2Q22.7,-46.8 27.4,-46.8Q35.5,-44.8 38.9,-40.5Q42.4,-34.9 43.1,-28.5L42,-26.8Q34.6,-25.4 26.5,-25.15Q18.4,-24.9 9.7,-24.4L9.5,-16.9Q10.9,-12.7 13.7,-9.6Q20.1,-5.6 26.4,-5.6Q35.8,-7.7 44.7,-15.8Q47,-15.8 47.4,-14.4L47.4,-13.1Q45,-9.6 41.3,-7.3Q31.7,-1.2 24.2,-1.2Z"></path><path transform="translate(175 200)" d=""></path><path transform="translate(208 200)" d="M21.7,-34.7Q27.8,-35.1 34.2,-35.7Q40.6,-36.3 46.4,-39.1Q49.9,-41 51,-44.5Q51.9,-46 51.9,-48.1L51.8,-52.8L51.1,-54.7Q49.7,-59.1 47.4,-60.9Q35.1,-65.1 23.7,-65.1L13.5,-64.9Q13.5,-63.3 14.4,-50.1L14.4,-34.8L21.7,-34.7ZM11.5,-1.4L10.9,-1.4Q9.6,-1.8 9.5,-2.8Q9.5,-4.2 10.1,-9.4L10.1,-50.1Q9.6,-53.4 9.5,-56.8Q9,-62.1 8.8,-67.3Q9.2,-68.3 10.3,-68.8L24.6,-69.7L28.3,-69.6Q34.5,-68.4 40.85,-67.55Q47.2,-66.7 52,-62.9Q56.3,-57 56.3,-48L56.2,-45.7Q54.6,-40.5 50.8,-36.8Q43.7,-31.9 35.2,-31.3Q26.7,-30.7 14.4,-30.3Q14.4,-11.8 14.3,-5.2Q14.2,-1.8 11.5,-1.4Z"></path><path transform="translate(269 200)" d="M10.7,-1Q10.4,-1 10.15,-1.1Q9.9,-1.2 9.5,-1.6Q9.1,-2 9,-2.4L8.8,-6.9L10.1,-39.6L9.6,-44.6Q9.6,-46.6 12.9,-46.6Q13.6,-46.6 14.1,-46.05Q14.6,-45.5 14.7,-45.2Q14.7,-41.6 14,-36.6Q24.4,-45.4 33.3,-46.6Q37.4,-45.9 40.7,-41.4L40.7,-40Q40.2,-39 39.2,-38.6L37.7,-38.6Q36.3,-39.4 35.15,-40.5Q34,-41.6 31.9,-41.9Q22.7,-39.5 16.5,-32.1L14.1,-27.4Q13.6,-22.1 13.35,-15.1Q13.1,-8.1 12.2,-1.4Q11.7,-1.2 10.7,-1Z"></path><path transform="translate(314 200)" d="M27.8,-5.6Q31.1,-6.2 34,-7.7Q39,-9.8 41.9,-13.8Q43.4,-17.8 43.6,-21.5Q43.8,-25.2 43.8,-29.5Q42.5,-34.7 38.7,-38.6Q33.3,-42.3 27.6,-42.3Q24.1,-41.7 20.6,-40.5Q17.1,-39.3 14.3,-36.5Q11.8,-34.1 10.7,-30.9Q9.1,-26 9.1,-23.7Q9.1,-15.2 14.9,-10.1Q20.3,-5.6 27.8,-5.6ZM25.6,-1.2Q16.6,-1.6 9.6,-9.2Q4.7,-15.4 4.7,-25.3Q6.2,-35.6 12.7,-41Q20.3,-46.8 30.5,-46.8Q31.9,-46.8 37.7,-44.3Q40.8,-43 43.3,-40.2Q48.3,-35 48.3,-26.7Q48.3,-22 46.9,-15.1Q46.1,-10.4 41.8,-7.4Q34.7,-1.2 25.6,-1.2Z"></path><path transform="translate(367 200)" d="M26.9,-57.9L24.4,-59.1Q23.8,-60 23.1,-60.9Q22.4,-61.8 22.4,-62.6Q22.7,-64.1 23.3,-65.25Q23.9,-66.4 24.85,-67.25Q25.8,-68.1 26.85,-68.2Q27.9,-68.3 29,-68.3Q30,-67.5 31.1,-66.95Q32.2,-66.4 32.7,-65.3L32.9,-62.4L31.2,-59.5Q29.5,-57.9 26.9,-57.9ZM13.5,17.3L12.4,17.3Q8.9,17.3 6.5,16.7Q1.4,15.4 0.6,8.7Q1.5,5.6 4.2,5.6Q4.5,5.8 5.5,7Q5.5,8.4 5,10.4L6.8,12.1Q8.3,12.8 11,12.8Q13.7,12.8 15.4,12.9Q17.4,12.4 19.5,11.85Q21.6,11.3 23.3,9.2Q25,6.2 25.6,3.6Q25.6,-16.8 25.4,-18.2Q25.6,-20.8 25.6,-41.7Q24.7,-44.6 24.7,-45.2Q24.8,-45.5 25.25,-45.95Q25.7,-46.4 25.85,-46.5Q26,-46.6 27.8,-46.8L29.2,-46.6Q30.2,-45.9 30.2,-45.4L30.2,-43.7Q29.8,-41.1 29.8,3.5Q29.4,9.4 24.8,13.8Q20.6,16.8 13.5,17.3Z"></path><path transform="translate(406 200)" d="M12.2,-28.8Q18.4,-29.4 24.8,-29.6Q31.2,-29.8 38.1,-30.5Q37.2,-36.1 33.9,-39.4Q28.3,-42.3 25.5,-42.3Q22.4,-42.3 14.3,-37.1Q12.4,-34.5 10.6,-28.8L12.2,-28.8ZM24.2,-1.2Q21.7,-1.2 16.2,-3.3Q12.9,-4.5 10.1,-7Q4.9,-12.4 4.9,-19.3Q4.9,-32.9 12,-41Q15.6,-43.3 19.5,-45.2Q22.7,-46.8 27.4,-46.8Q35.5,-44.8 38.9,-40.5Q42.4,-34.9 43.1,-28.5L42,-26.8Q34.6,-25.4 26.5,-25.15Q18.4,-24.9 9.7,-24.4L9.5,-16.9Q10.9,-12.7 13.7,-9.6Q20.1,-5.6 26.4,-5.6Q35.8,-7.7 44.7,-15.8Q47,-15.8 47.4,-14.4L47.4,-13.1Q45,-9.6 41.3,-7.3Q31.7,-1.2 24.2,-1.2Z"></path><path transform="translate(458 200)" d="M24.2,-1.2Q20.2,-1.8 16.3,-3.55Q12.4,-5.3 9.4,-8.5Q6.4,-11.7 5.55,-15.75Q4.7,-19.8 4.7,-24.1Q4.7,-28.7 6.2,-32.5Q9.1,-39.4 19.7,-44.7Q23.3,-46.6 27.2,-46.6Q35.8,-46.6 42.7,-39.6Q43.6,-38.5 43.6,-37.3Q43.4,-35.6 42,-35.2L40.9,-35.2Q39.5,-36.2 38.25,-37.65Q37,-39.1 34.9,-39.9Q31.9,-42 26.8,-42L24.9,-41.9Q21.6,-40.7 18.7,-39.05Q15.8,-37.4 13.25,-35.05Q10.7,-32.7 9.9,-29.45Q9.1,-26.2 9.1,-22.2Q9.6,-13.9 13.7,-10.1Q20.8,-5.9 25.6,-5.6Q30.4,-6.3 34.85,-8.15Q39.3,-10 43.5,-11.4Q44.2,-11.1 44.9,-9.9L44.9,-8.6Q43.9,-6.4 32.9,-2.7Q28.8,-1.4 24.2,-1.2Z"></path><path transform="translate(507 200)" d="M21.1,-0.9Q19.1,-1.2 17.35,-1.75Q15.6,-2.3 14.3,-4.1Q12.8,-6.9 12.65,-10Q12.5,-13.1 12,-16.3Q12,-25.6 12.6,-42.1L6.9,-42.7Q5.9,-42 4.8,-42Q3.1,-42 2.6,-43.5L2.6,-45.1L4,-46.7Q5.1,-46.9 6.3,-46.9Q9.2,-46.7 12.7,-46.7Q13.2,-51.3 13.35,-58.3Q13.5,-65.3 14.6,-68.5Q15.1,-68.9 16.3,-68.9L18,-67.5Q18.1,-66.8 18.4,-66.2Q18.7,-65.6 18.7,-64.8Q17.5,-62.1 17.45,-56.2Q17.4,-50.3 17.3,-47.1Q20.5,-46.7 26.8,-46.7Q27.9,-46.3 28.3,-45.2L28.3,-43.8Q27.8,-42.6 25.8,-42.2L20.6,-42.2L17.1,-42.8Q16.4,-25.6 16.4,-16.2Q16.9,-13.8 17,-11.3Q17.1,-8.8 18.1,-6.4Q20.2,-5.3 25.5,-5.3Q28.5,-6.4 31.6,-11.2Q32.3,-11.6 33.6,-11.6Q34.6,-11.2 34.9,-10.2L34.9,-8.1Q32.8,-5.4 31.6,-4.2Q30.4,-3 27.6,-1.2L21.1,-0.9Z"></path><path transform="translate(545 200)" d=""></path><path transform="translate(578 200)" d="M13.3,-1.4L12,-1.4L10.5,-2.6L9.7,-6.9L9.6,-39.1Q10.1,-43.4 10.1,-49.2Q9.9,-53.8 9.9,-57.2L10,-61.8L8.8,-67.1L9.8,-68.8Q10.5,-69.2 12,-69.2Q12.3,-69.2 12.5,-67.4L13.7,-69.1L17.9,-68.9L32.5,-69.1Q38.6,-68.8 45.1,-68.7Q48.9,-68.5 53,-68L55.1,-68.1L56,-67.4Q56.4,-67.4 56.4,-67.6L56.3,-67.8L55.9,-67.4Q56.5,-66.8 56.5,-66.7Q56.5,-64.3 55.1,-64L53.5,-64.1L53.3,-63.9Q34.2,-64.6 14.5,-65.1L14,-64Q14.3,-62.1 14.3,-56.6Q14.7,-53.7 14.7,-50.9Q14.7,-41.9 13.9,-40.1L27.1,-39.2L33.7,-39.4L37.6,-39.2L45.7,-39.5Q46.8,-39.1 47.2,-38.1L47.2,-36.8Q46.6,-35.6 45.7,-35.4L42.1,-35.3L42.1,-35Q34.2,-35 32,-34.9L32,-35Q21.9,-35 13.9,-35.8L13.9,-25.3Q14.1,-16.3 14.1,-7.1Q14.7,-5.9 14.7,-2.8Q14.6,-1.8 13.3,-1.4Z"></path><path transform="translate(639 200)" d="M27.8,-5.6Q31.1,-6.2 34,-7.7Q39,-9.8 41.9,-13.8Q43.4,-17.8 43.6,-21.5Q43.8,-25.2 43.8,-29.5Q42.5,-34.7 38.7,-38.6Q33.3,-42.3 27.6,-42.3Q24.1,-41.7 20.6,-40.5Q17.1,-39.3 14.3,-36.5Q11.8,-34.1 10.7,-30.9Q9.1,-26 9.1,-23.7Q9.1,-15.2 14.9,-10.1Q20.3,-5.6 27.8,-5.6ZM25.6,-1.2Q16.6,-1.6 9.6,-9.2Q4.7,-15.4 4.7,-25.3Q6.2,-35.6 12.7,-41Q20.3,-46.8 30.5,-46.8Q31.9,-46.8 37.7,-44.3Q40.8,-43 43.3,-40.2Q48.3,-35 48.3,-26.7Q48.3,-22 46.9,-15.1Q46.1,-10.4 41.8,-7.4Q34.7,-1.2 25.6,-1.2Z"></path><path transform="translate(692 200)" d="M10.7,-1Q10.4,-1 10.15,-1.1Q9.9,-1.2 9.5,-1.6Q9.1,-2 9,-2.4L8.8,-6.9L10.1,-39.6L9.6,-44.6Q9.6,-46.6 12.9,-46.6Q13.6,-46.6 14.1,-46.05Q14.6,-45.5 14.7,-45.2Q14.7,-41.6 14,-36.6Q24.4,-45.4 33.3,-46.6Q37.4,-45.9 40.7,-41.4L40.7,-40Q40.2,-39 39.2,-38.6L37.7,-38.6Q36.3,-39.4 35.15,-40.5Q34,-41.6 31.9,-41.9Q22.7,-39.5 16.5,-32.1L14.1,-27.4Q13.6,-22.1 13.35,-15.1Q13.1,-8.1 12.2,-1.4Q11.7,-1.2 10.7,-1Z"></path><path transform="translate(737 200)" d=""></path><path transform="translate(770 200)" d="M23,-1L21.4,-2.2Q17.2,-18.1 13.3,-34.25Q9.4,-50.4 4.7,-67.8Q5.1,-69 6,-69.1L8.3,-69.1Q8.6,-69 9.05,-68.55Q9.5,-68.1 9.6,-67.8Q9.6,-66.4 9.4,-65.6Q16.6,-40.4 23.8,-9.7Q26.9,-23.6 31.3,-36.65Q35.7,-49.7 41.9,-68.7Q42,-68.8 42.3,-68.85Q42.6,-68.9 42.7,-68.9L43.9,-68.9Q44.8,-68.8 45.2,-67.4Q48.5,-48.8 52.65,-36.3Q56.8,-23.8 60.4,-12.4Q66.8,-26.5 71.75,-41.55Q76.7,-56.6 81.8,-68.8Q82.4,-69.1 83.9,-69.1Q85.2,-68.9 85.2,-66.2Q69.5,-22.9 62.5,-5.1Q63,-4.4 63,-2.7Q62.7,-1.6 61.6,-1.2L60.3,-1.2Q59.3,-1.5 58.6,-3.2Q55.7,-13.8 51.45,-26.75Q47.2,-39.7 42.6,-55Q36,-39.4 32.4,-26Q28.8,-12.6 24.9,-1.4Q24.5,-1.1 23,-1Z"></path><path transform="translate(860 200)" d="M12.2,-28.8Q18.4,-29.4 24.8,-29.6Q31.2,-29.8 38.1,-30.5Q37.2,-36.1 33.9,-39.4Q28.3,-42.3 25.5,-42.3Q22.4,-42.3 14.3,-37.1Q12.4,-34.5 10.6,-28.8L12.2,-28.8ZM24.2,-1.2Q21.7,-1.2 16.2,-3.3Q12.9,-4.5 10.1,-7Q4.9,-12.4 4.9,-19.3Q4.9,-32.9 12,-41Q15.6,-43.3 19.5,-45.2Q22.7,-46.8 27.4,-46.8Q35.5,-44.8 38.9,-40.5Q42.4,-34.9 43.1,-28.5L42,-26.8Q34.6,-25.4 26.5,-25.15Q18.4,-24.9 9.7,-24.4L9.5,-16.9Q10.9,-12.7 13.7,-9.6Q20.1,-5.6 26.4,-5.6Q35.8,-7.7 44.7,-15.8Q47,-15.8 47.4,-14.4L47.4,-13.1Q45,-9.6 41.3,-7.3Q31.7,-1.2 24.2,-1.2Z"></path><path transform="translate(912 200)" d="M31.9,-5.6Q34.6,-6.2 40,-8.5Q43.5,-10.8 46,-13.8Q47.5,-17.8 47.65,-21.5Q47.8,-25.2 47.8,-29.5Q46.6,-34.7 42.8,-38.6Q37.2,-42.3 31.7,-42.3Q28.2,-41.7 24.7,-40.5Q21.2,-39.3 18.4,-36.5Q15.8,-34.1 14.8,-30.95Q13.8,-27.8 13.3,-25.4L13.3,-22.4Q13.6,-14.8 18.9,-10.2Q24.2,-5.6 31.9,-5.6ZM29.7,-1.2Q21.1,-1.6 13.5,-9.4L13.3,-5.4Q14,-4.3 14,-3.8Q13.6,-2.2 12.1,-1.4L10.8,-1.4Q9.8,-1.7 8.8,-4.7L8.8,-37.7L9.2,-41.3Q9.2,-51.9 9.4,-62.3Q10,-64.1 10,-65.9Q10,-67.7 10.9,-68.7Q11.8,-69.1 13,-69.1Q13.4,-69.1 13.8,-68.6Q14.2,-68.1 14.3,-67.8L14.3,-65L13.8,-62.5Q13.8,-43.3 13.2,-37.6Q21.7,-46.8 34.6,-46.8Q36,-46.8 41.8,-44.3Q44.9,-43 47.4,-40.2Q52.3,-34.9 52.3,-27Q52.3,-21.7 51,-15.1Q50.2,-10.4 45.9,-7.4Q38.8,-1.2 29.7,-1.2Z"></path></svg>