<svg  xmlns="http://www.w3.org/2000/svg" xmlns:xlink="http://www.w3.org/1999/xlink" width="969" height="300" viewBox="0 0 993 324"><path transform="translate(0 100)" d="M52,-31.2L63.7,-31.4Q69.6,-31.4 76.8,-32.7Q78.7,-46.7 81.7,-56.5L80.1,-56.7Q69.1,-55.4 52.8,-54.4L52,-31.2ZM23.9,-28.5Q29.6,-29.4 35.25,-29.8Q40.9,-30.2 46.4,-30.9Q46.4,-34.3 47.3,-54.2Q40.1,-54.2 26,-52.1L19.8,-51.3L19.8,-50.7Q21,-45.1 21.75,-39.55Q22.5,-34 23.9,-28.5ZM50,10.4L48.3,10.4Q47.7,10.2 46.2,8L46.1,7Q46.1,-4 46.2,-7L46.1,-25L43,-25Q33.8,-24 32.9,-24Q27.9,-23.7 23.1,-22.5L19.5,-24.2Q17.5,-31.8 16.3,-39.55Q15.1,-47.3 13.8,-55Q14.3,-58 17.7,-58Q19.1,-56.8 19.9,-56.8L20.3,-56.9Q35.4,-59.3 47.7,-59.7Q47.9,-62.1 47.9,-71.4L47.3,-79.3Q47.8,-80.8 49.2,-81.2L50.7,-81.2Q51.6,-80.8 51.9,-80.3Q52.4,-79.9 52.8,-79.1L52.7,-77.4Q52.7,-76.2 52.85,-75.25Q53,-74.3 53.15,-73.3Q53.3,-72.3 53.5,-71.4Q53.5,-61.7 53.2,-59.9Q56.1,-59.9 69.6,-61.3Q79.5,-62.1 84.7,-62.7Q87.3,-61.6 87.8,-60.1L87.8,-58.5Q85.5,-50.3 84.05,-42.1Q82.6,-33.9 80.6,-26L78.7,-25.2L76.6,-26.4L76.4,-27Q67,-25.7 63.7,-25.7Q54,-25.7 51.8,-25.5Q51.8,-7.2 51.9,-3.8L51.8,6.1L51.9,8.4Q51.7,9.7 50,10.4Z"></path><path transform="translate(100 100)" d="M51,-27.9L51.2,-28Q61,-38.4 65.9,-56.9L63.9,-56.9Q58.4,-55.9 51,-55.1Q41.7,-53.8 34.2,-53.4L34.2,-52.2Q42.7,-36.8 50.4,-28L51,-27.9ZM12.5,5L10.4,3.7Q9.8,3.1 9.8,1.3Q10.2,0.3 11.15,-0.15Q12.1,-0.6 12.7,-1.2Q31,-7 45.4,-21.5L47,-23.6Q34.3,-37.6 28.4,-52.6L27,-52.6Q22.9,-52 18.9,-51.55Q14.9,-51.1 11,-50.1L8.8,-51.3Q8.5,-51.8 8.45,-52Q8.4,-52.2 8.3,-53.8Q8.5,-54.9 10.6,-55.8Q21.7,-57.7 35.4,-59.1Q41.9,-59.7 48.4,-60.5Q47.8,-60.9 47.5,-61.5Q47.2,-62.1 46.8,-62.7Q46.1,-66.4 44.9,-69.85Q43.7,-73.3 42.9,-76.7Q43,-77.4 43.65,-78Q44.3,-78.6 44.8,-78.7L46.3,-78.7Q47.6,-78.1 48.1,-77.05Q48.6,-76 49.3,-75.1Q50.3,-72 51.25,-68.8Q52.2,-65.6 52.3,-62.3L51.4,-61L53.1,-60.7Q61.8,-62.5 70.6,-63Q79.4,-63.5 88,-64.2Q89.6,-63.8 90,-62.3L90,-60.7Q89.3,-59.4 87.8,-58.7L71.5,-57.3Q69.7,-48 65.7,-39.7Q61.2,-30.2 54.5,-23.4Q68.8,-8.7 90.7,-1.6Q91.2,-0.8 91.2,0.9Q91.1,1.4 90.4,2.1Q89.7,2.8 88.2,3.1Q66.9,-2.8 50.8,-19.3Q43.6,-10.7 33.8,-5Q25.8,0.7 12.5,5Z"></path><path transform="translate(200 100)" d="M21.4,-6.1Q20.7,-6.2 20.3,-6.9Q19.6,-7.6 19.3,-8.9Q23,-15.3 26.8,-21.75Q30.6,-28.2 33,-35.5Q24,-46.4 21.2,-49.2L21.2,-50.7Q21.6,-52 23.1,-52.6L24.9,-52.6Q27.9,-50.6 30.25,-47.65Q32.6,-44.7 35,-42Q36.3,-46.5 37.1,-51.45Q37.9,-56.4 39.2,-60.7Q40.3,-61.3 41.7,-61.3Q43.1,-61 43.7,-59.4Q43.7,-51.5 39.2,-35.9Q41.5,-32.1 43.9,-28.55Q46.3,-25 47.7,-20.9Q47.6,-20.3 46.95,-19.8Q46.3,-19.3 45.8,-19.1Q45.3,-18.9 44.8,-18.8L42.7,-19.8Q41.1,-21.9 39.75,-24.35Q38.4,-26.8 36.8,-28.9Q33.8,-23 30.9,-17.3Q28,-11.6 24,-6.6Q23,-6.1 21.4,-6.1ZM50.4,-4.4L48.2,-5.7L47.6,-7.7Q57.6,-22.5 60.4,-32.8Q57.8,-36.7 55.15,-40.65Q52.5,-44.6 48.9,-47.7L48.6,-50.1Q49.5,-51.8 50.6,-52L52.1,-52Q58.2,-46.8 62.6,-39.7Q64.5,-45 65.85,-50.4Q67.2,-55.8 69.1,-61Q69.7,-61.5 71.8,-61.5Q73.2,-61.2 73.8,-59.6Q73.8,-57.8 70.3,-45.5Q68.4,-39.1 66.8,-32.7Q68.7,-28.3 72.05,-24.55Q75.4,-20.8 76.1,-15.9Q75.5,-14.3 74.2,-13.9L72.6,-13.9Q70.9,-14.6 70,-17.1Q68.7,-19.5 67.1,-21.55Q65.5,-23.6 64.1,-26Q60.8,-16.2 52.3,-5.3L50.4,-4.4ZM81.6,6.5Q76.8,5.7 72.3,3.2Q67.8,0.7 63.4,-1.6L62.4,-4L63.6,-6.1Q64.3,-6.6 66.1,-6.6Q68.1,-5.4 79.7,0.3L83.3,-34.2Q84.7,-51.4 86,-68.7L84,-68.7Q66.8,-66.6 49.4,-65.35Q32,-64.1 14.9,-61.7Q14.9,-46.9 17.3,-23.9L17.3,-14.1L17.9,-10.1Q17.9,-2.4 18.3,1.8Q17.8,3.7 16.4,3.7L14.9,3.7L13.5,3.1Q12.4,1.7 12.4,-1.8L12.4,-10.1L11.8,-14.1L11.8,-23.9Q9.6,-45.9 9.2,-63.8Q9.3,-64.6 9.7,-65.3Q10,-67.1 13.1,-67.1Q32,-69.6 50.85,-71.1Q69.7,-72.6 88.5,-74.3L91.1,-72.7Q91.6,-72 91.6,-71.1L91.6,-68.1Q90,-49.6 88.6,-31.05Q87.2,-12.5 83.5,5.7L81.6,6.5Z"></path><path transform="translate(300 100)" d="M11.6,-39.5Q11,-39.7 10.4,-40.25Q9.8,-40.8 9.7,-41.35Q9.6,-41.9 9.4,-42.4Q10.9,-46.6 12.75,-50.75Q14.6,-54.9 15.9,-59.4L15.7,-61.2Q15.9,-62.4 17.6,-63.2L49.7,-65.8Q48.3,-69.4 46.5,-72.55Q44.7,-75.7 43.5,-78.9Q43.6,-79.3 43.8,-79.6Q44.7,-80.7 45.4,-80.8L47,-80.8Q50.7,-78.1 53.3,-71.9Q53.6,-70.7 54.1,-69.7Q54.6,-68.7 54.6,-67.7L54.1,-66.2Q59.1,-66.2 71.1,-68.1Q79.2,-69.3 87.4,-69.8L87.9,-69.6L89.7,-69.8Q91.3,-69.2 91.7,-67.9L91.7,-66.4Q89.7,-62.1 88.2,-57.75Q86.7,-53.4 84.3,-49.4Q82.9,-48.7 81.8,-48.7Q80.3,-49.1 79.8,-50.7L79.8,-52.2L84.3,-63.5L82.4,-63.6Q67,-61.6 51.75,-60.4Q36.5,-59.2 21.3,-57.6Q18.4,-47.8 14,-40.1Q13,-39.5 11.6,-39.5ZM49.7,7.9L48.6,7.8Q44.1,5.9 39.25,4.3Q34.4,2.7 30.1,0.1L29.3,-1.8L30.6,-4Q31.4,-4.4 33,-4.4Q36.9,-2.6 41,-1Q45.3,0.3 49.3,1.8Q49.9,1.3 50.6,0.65Q51.3,-0 52,-0.5Q56.1,-6.1 56.1,-17.2Q56.1,-19.7 55.5,-22.1Q43.9,-20.8 32.15,-20.15Q20.4,-19.5 8.8,-17.8Q7.8,-18.3 6.9,-19.8L6.9,-21.4L9,-23.6Q20.1,-24.9 31.2,-25.7Q42.3,-26.5 53.3,-27.5L53.6,-28.2L51.9,-32.4Q50.5,-35.1 46.8,-37.6Q45.6,-38.3 45,-39.5Q45,-42.5 47,-43L48.6,-43L52.9,-40.3Q55.4,-42.2 57.75,-44.65Q60.1,-47.1 62.9,-48.5L61.8,-48.7Q56.6,-47.9 27.4,-42.4L25.3,-43.6Q24.7,-44.2 24.7,-46.1Q25,-47.1 26.4,-47.8Q27.5,-48.2 50.1,-52.3Q61.6,-54.6 73.4,-55.7Q74,-55.6 74.65,-55Q75.3,-54.4 75.4,-53.8L75.4,-52.2Q70.9,-48 65.95,-44.15Q61,-40.3 56.4,-35.9Q58.7,-31.3 59.7,-28L63.3,-28Q79.4,-30.2 90.4,-30.7Q91.7,-30.1 92.3,-28.7L92.3,-27.1Q91.6,-25.4 90.4,-25.2Q81.5,-24.6 61.5,-22.5L61.6,-13.9Q61.2,-8.8 59.7,-3.6Q58.2,1.6 53.9,5.3Q53.8,5.6 51.7,7.4Q50.8,7.9 49.7,7.9Z"></path><path transform="translate(400 100)" d="M32.3,-60.3L30.7,-61Q27.8,-64.4 21.8,-68.4Q18.9,-70.4 15.8,-72.8L15.8,-74.8Q17.9,-76.5 18.5,-76.5L19.1,-76.3Q24.7,-73.8 28.9,-70.3Q30.1,-69.5 35.6,-64L35.7,-63.2Q35.7,-60.7 32.3,-60.3ZM21.5,4.3L20.4,4.2Q19,4 18.6,3.2Q17.8,2 17.8,1.3Q17.8,0.6 19.4,-1.2L23.3,-3.3L23,-5.7Q23.5,-23.2 23.9,-40.8L20.2,-40.2Q13.4,-39.1 8.7,-37.5Q7.3,-38 6.6,-38.5Q5.9,-39 5.9,-41.2Q6.2,-42.3 8.3,-43.2Q15.6,-45.3 24.9,-46.5Q25.4,-46.8 27.1,-46.8Q27.8,-46.2 28.2,-45.8Q28.6,-45.4 28.9,-45.15Q29.2,-44.9 29.2,-44.05Q29.2,-43.2 29.4,-42L29.4,-30.3L28.6,-6.3L31.2,-7.7Q35.4,-9.9 41.6,-12.8L44.4,-14.2Q45.1,-14.2 45.8,-13.9Q46.5,-13.6 46.8,-12.9Q47.1,-12.2 47.3,-11.5Q47.3,-10.7 47,-10.1Q46.3,-9 37.5,-4.6Q29,-0.5 21.5,4.3ZM71.5,8.1L69.9,8.1Q68.9,7.9 68,6.2L67.6,2.8L67.6,-14.7L67.7,-23.8Q67.7,-27.7 67.8,-29.3Q68.2,-34.9 68.3,-38.7Q64,-38.7 60.8,-37.8Q59.3,-37.5 57.7,-37.3Q53.3,-36.6 49,-35.6Q48.4,-35.9 47.75,-36.15Q47.1,-36.4 46.7,-36.95Q46.3,-37.5 46.3,-39.3Q46.8,-40.6 48.3,-41.3L68.3,-44.3Q68.3,-62.4 68.5,-74.3L68.3,-77.2Q68.8,-78.7 70.1,-79.1L71.7,-79.1Q72.7,-78.1 73.5,-77.5Q73.8,-77.2 73.8,-76.35Q73.8,-75.5 74,-74.3Q74,-59.6 73.8,-44.9Q77.4,-44.9 80.7,-45.4L92.2,-46.6Q92.7,-46.6 93.3,-45.95Q93.9,-45.3 94.1,-44.7L94.1,-43.1Q93.2,-41.8 92,-41Q83.7,-40 73.8,-39.3L73.4,-28.8Q73.4,-13.3 73.2,2.1L73.4,6.2Q72.7,7.9 71.5,8.1Z"></path><path transform="translate(500 100)" d="M44.8,-61.5L44.1,-61.6L42.2,-62.8Q38.6,-66.6 34.6,-70.1Q33.6,-71.3 33.6,-72.4Q33.8,-73.6 34.4,-74.6Q35.8,-75.5 36.4,-75.5L37.1,-75.4Q39.9,-73.8 47.4,-65.6L47.6,-63.7L46.9,-62.2Q46.6,-62.1 46.3,-61.95Q46,-61.8 45.6,-61.65Q45.2,-61.5 44.8,-61.5ZM70.8,-19.3L70.2,-19.4L68.8,-20.2Q66.5,-30.4 65.05,-40.8Q63.6,-51.2 61.3,-61.6L62.1,-62.7Q62.9,-63.7 64.7,-63.7L66.1,-62.8Q69,-52.8 70.65,-42.35Q72.3,-31.9 73.6,-21.5L72.9,-20.2Q71.5,-19.3 70.8,-19.3ZM51.5,7.4L50.8,7.3Q46.6,6.5 43.7,2.8Q39.7,-1.2 37.3,-6.55Q34.9,-11.9 32.2,-16.8Q27.2,-12.1 21.95,-7.9Q16.7,-3.7 10.5,-1.3L9,-2Q8.3,-3.2 8.3,-4Q8.3,-4.5 9,-6.1Q18.4,-11.8 29.6,-22.1L29.8,-22.8Q25.3,-35.4 24.1,-45.5L23,-45.5Q20.1,-44.4 10.7,-42.3L9.2,-43.1Q9.1,-43.4 8.95,-43.65Q8.8,-43.9 8.6,-44.35Q8.4,-44.8 8.4,-45.2Q8.4,-45.6 9.2,-47.2Q15.3,-49.5 23,-51L23,-51.9Q21.3,-66.7 21.3,-77L22.3,-78.7Q23,-79.4 24.2,-79.6Q24.6,-79.6 26.3,-78.7Q27.2,-77.4 27.2,-76.6Q27.1,-76 26.9,-71.4Q27.5,-66.7 27.8,-61.95Q28.1,-57.2 28.8,-52.6Q35.5,-54.1 41.8,-55.85Q48.1,-57.6 54.6,-59.2L55.9,-58.3Q56.7,-57.3 56.7,-56.4Q56.7,-55.8 55.9,-54.4Q46.2,-50.8 29.4,-46.9Q31.6,-35.5 34.6,-26.7Q40.7,-33.3 44.4,-38.2Q47,-41.9 49.3,-44.9Q50.6,-45.8 51.4,-45.8L52,-45.7L53.4,-44.9Q54.2,-44.1 54.2,-41.8L52.7,-39.8Q44.6,-28.2 36.9,-21.1L36.9,-20.3Q39.7,-14.9 42.2,-9.5Q44.7,-4.1 49.1,0.2L50.1,0.7Q52.2,-2.5 53.25,-6.2Q54.3,-9.9 56.1,-13.4Q56.3,-13.5 56.6,-13.7Q56.9,-13.9 57.3,-14.05Q57.7,-14.2 58.8,-14.2Q60.8,-13.1 60.85,-12.2Q60.9,-11.3 60.9,-10.3L60.4,-8.9Q57.5,0.6 53.6,6.5Q52.3,7.4 51.5,7.4ZM83.1,7.5Q79.1,5.7 75.55,3.15Q72,0.6 68.2,-2Q67.3,-3 67.3,-4.2Q67.3,-5 68,-6.4Q69.2,-7.2 70.3,-7.2Q70.6,-7.2 82.2,0.4L82.6,-10.3Q82.2,-28.9 81.8,-34.4L81.8,-50.8L82.2,-54.5L82.2,-78.3L83,-79.7Q84,-80.5 85.6,-80.5L87,-79.7L87.7,-78.3Q87.7,-53.4 87.4,-49.8Q87.4,-35.5 87.7,-30Q87.7,-15.8 88.1,-1.6Q87.7,-0 87.7,3.5Q87.7,7.5 83.1,7.5Z"></path><path transform="translate(0 200)" d="M35.6,-0.4L34.1,-0.4L32.2,-1.9L31.8,-6.4L32,-24.5L32.8,-31.7Q32.8,-47.8 32.6,-63.9L13.6,-63.9Q6.7,-63.9 5,-64.8L4.1,-67.2L5.3,-69.3Q6.3,-69.8 7.9,-69.8Q9.4,-69.7 14.7,-69.7Q20,-69.7 21.8,-69.6L48.2,-69.8L58.9,-69.6L63.3,-69.8Q64.4,-69.6 65.3,-67.8L65.3,-66.4Q64.8,-65.1 63.3,-64.4Q50.7,-63.9 38.1,-63.9Q38.1,-42.9 38.4,-31.7L37.6,-24.5Q37.6,-6.6 37.4,-4.6L37.6,-2.3Q37.1,-0.8 35.6,-0.4Z"></path><path transform="translate(69 200)" d="M12.6,-0.5L11.1,-0.5L10.9,-0.6Q9.4,-1.1 9.2,-2.4L8.8,-9.6L9.1,-23.9L8.2,-36.5L8.2,-44.8Q8.6,-47.7 9.2,-58L9.2,-68Q9.7,-69.3 11.1,-70L12.7,-70Q14.3,-69.1 14.8,-67.8L14.8,-58L13.9,-44.8L13.9,-36.9Q18.3,-40.5 22.9,-43.95Q27.5,-47.4 33.4,-47.4Q38.7,-46.1 42.4,-42.4Q44.8,-38.1 44.85,-33.35Q44.9,-28.6 45.7,-23.9Q45.7,-7.2 46,-3.2Q44.3,-0.6 42.9,-0.6L40.8,-1.5Q40.1,-2.9 39.9,-4.3Q39.9,-5.6 40.1,-7.2L40.1,-23.9Q39.6,-27.8 39.45,-31.8Q39.3,-35.8 37.7,-39.2Q36,-40 34.55,-40.85Q33.1,-41.7 31.4,-41.7Q24,-39.1 14.6,-29.4Q14.4,-24.1 14.3,-9.6L14.5,-2.4Q14,-1.2 12.6,-0.5Z"></path><path transform="translate(123 200)" d="M12.2,-29.4Q18.4,-30 24.8,-30.2Q31.2,-30.4 37.4,-31Q36.6,-35.8 33.5,-38.9Q28.2,-41.7 25.5,-41.7Q22.6,-41.7 14.7,-36.7Q12.9,-34.2 11.4,-29.4L12.2,-29.4ZM24.2,-0.6Q21.6,-0.6 16,-2.7Q12.6,-4 9.7,-6.6Q4.3,-12.2 4.3,-19.3Q4.3,-33.1 11.6,-41.5Q15.3,-43.8 19.2,-45.7Q22.6,-47.4 27.5,-47.4Q35.8,-45.3 39.4,-40.8Q43,-35.1 43.7,-28.4L42.4,-26.3Q34.7,-24.8 26.55,-24.55Q18.4,-24.3 10.3,-23.8L10.1,-17Q11.4,-13 14.1,-10.1Q20.3,-6.2 26.3,-6.2Q35.5,-8.3 44.5,-16.4L46,-16.4Q47.6,-15.9 48,-14.5L48,-12.9Q45.4,-9.2 41.6,-6.8Q31.9,-0.6 24.2,-0.6Z"></path><path transform="translate(175 200)" d=""></path><path transform="translate(208 200)" d="M21.7,-35.3Q27.8,-35.7 34.1,-36.3Q40.4,-36.9 46.1,-39.6Q49.4,-41.4 50.4,-44.7Q51.3,-46.2 51.3,-48.1L51.2,-52.7L50.5,-54.5Q49.2,-58.7 47.1,-60.4Q35,-64.5 23.7,-64.5L14.1,-64.3Q14.1,-63.3 15,-50.1L15,-35.4L21.7,-35.3ZM11.5,-0.8L10.8,-0.8Q9.1,-1.4 8.9,-2.8Q8.9,-4.2 9.5,-9.4L9.5,-50.1Q9,-53.3 8.9,-56.8Q8.4,-62.1 8.2,-67.4Q8.7,-68.7 10.1,-69.4L24.6,-70.3L28.4,-70.2Q34.6,-69 41,-68.15Q47.4,-67.3 52.4,-63.3Q56.9,-57.2 56.9,-48L56.8,-45.6Q55.1,-40.2 51.2,-36.3Q43.9,-31.3 35.3,-30.7Q26.7,-30.1 15,-29.7Q15,-11.8 14.9,-5.2Q14.8,-1.3 11.5,-0.8Z"></path><path transform="translate(269 200)" d="M11,-0.4L10.2,-0.4Q10.1,-0.5 9.85,-0.6Q9.6,-0.7 9.05,-1.2Q8.5,-1.7 8.4,-2.3L8.2,-6.9L9.5,-39.6L9,-44.6Q9,-47.2 12.9,-47.2Q13.8,-47.2 14.5,-46.5Q15.2,-45.8 15.3,-45.2Q15.3,-41.6 14.8,-38.1Q24.1,-46 33.3,-47.2Q36.2,-46.7 37.95,-45.25Q39.7,-43.8 41.3,-41.6L41.3,-39.9Q40.6,-38.5 39.3,-38L37.6,-38Q35.9,-38.9 34.8,-39.95Q33.7,-41 31.9,-41.3Q23,-39 17,-31.8L14.7,-27.2Q14.2,-22.1 13.95,-15.1Q13.7,-8.1 12.8,-1Q11.9,-0.6 11,-0.4Z"></path><path transform="translate(314 200)" d="M27.7,-6.2Q30.9,-6.8 33.7,-8.2L35.6,-9Q39.6,-11.6 41.4,-14.1Q42.8,-17.9 43,-21.55Q43.2,-25.2 43.2,-29.4Q42,-34.4 38.3,-38.1Q33.1,-41.7 27.7,-41.7Q24.2,-41.1 20.8,-39.95Q17.4,-38.8 14.7,-36.1Q12.3,-33.8 11.3,-30.7Q9.7,-25.9 9.7,-23.7Q9.7,-15.5 15.3,-10.6Q20.5,-6.2 27.7,-6.2ZM25.6,-0.6Q16.3,-1 9.1,-8.8Q4.1,-15.2 4.1,-25.3Q5.6,-35.9 12.3,-41.5Q20.1,-47.4 30.5,-47.4Q32,-47.4 37.9,-44.9Q41.2,-43.5 43.7,-40.6Q48.9,-35.2 48.9,-26.7Q48.9,-21.9 47.5,-15Q46.6,-10.1 42.2,-6.9Q34.9,-0.6 25.6,-0.6Z"></path><path transform="translate(367 200)" d="M26.8,-57.3L24,-58.6Q23.3,-59.6 22.55,-60.6Q21.8,-61.6 21.8,-62.7Q22.1,-64.3 22.75,-65.55Q23.4,-66.8 24.5,-67.75Q25.6,-68.7 26.75,-68.8Q27.9,-68.9 29.2,-68.9Q30.3,-68 31.5,-67.4Q32.7,-66.8 33.3,-65.4L33.5,-62.3L31.7,-59.1Q29.7,-57.3 26.8,-57.3ZM13.5,17.9L12.4,17.9Q8.8,17.9 6.3,17.25Q3.8,16.6 1.9,14.3Q0.8,13.1 0.5,11.7Q0.2,10.3 0,8.7Q1,5 4.3,5Q4.9,5.3 6.1,6.8Q6.1,8.5 5.7,10.2L7.1,11.6Q8.4,12.2 11.05,12.2Q13.7,12.2 15.3,12.3Q17.3,11.8 19.3,11.3Q21.3,10.8 22.8,8.9Q24.4,6 25,3.5Q25,-16.8 24.8,-18.2Q25,-20.8 25,-41.6Q24.1,-44.5 24.1,-45.2Q24.2,-45.8 24.75,-46.35Q25.3,-46.9 25.55,-47.05Q25.8,-47.2 27.8,-47.4L29.4,-47.2Q30.8,-46.2 30.8,-45.4L30.8,-43.7Q30.4,-41.1 30.4,3.5Q30,9.7 25.2,14.3Q20.8,17.4 13.5,17.9Z"></path><path transform="translate(406 200)" d="M12.2,-29.4Q18.4,-30 24.8,-30.2Q31.2,-30.4 37.4,-31Q36.6,-35.8 33.5,-38.9Q28.2,-41.7 25.5,-41.7Q22.6,-41.7 14.7,-36.7Q12.9,-34.2 11.4,-29.4L12.2,-29.4ZM24.2,-0.6Q21.6,-0.6 16,-2.7Q12.6,-4 9.7,-6.6Q4.3,-12.2 4.3,-19.3Q4.3,-33.1 11.6,-41.5Q15.3,-43.8 19.2,-45.7Q22.6,-47.4 27.5,-47.4Q35.8,-45.3 39.4,-40.8Q43,-35.1 43.7,-28.4L42.4,-26.3Q34.7,-24.8 26.55,-24.55Q18.4,-24.3 10.3,-23.8L10.1,-17Q11.4,-13 14.1,-10.1Q20.3,-6.2 26.3,-6.2Q35.5,-8.3 44.5,-16.4L46,-16.4Q47.6,-15.9 48,-14.5L48,-12.9Q45.4,-9.2 41.6,-6.8Q31.9,-0.6 24.2,-0.6Z"></path><path transform="translate(458 200)" d="M24.2,-0.6Q20,-1.2 16,-3Q12,-4.8 8.9,-8.1Q5.8,-11.4 4.95,-15.55Q4.1,-19.7 4.1,-24.1Q4.1,-28.8 5.6,-32.7Q8.6,-39.8 19.4,-45.2Q23.1,-47.2 27.2,-47.2Q36.1,-47.2 43.1,-40Q44.2,-38.7 44.2,-37.3Q43.9,-35.1 42.1,-34.6L40.7,-34.6Q39.1,-35.8 37.85,-37.2Q36.6,-38.6 34.6,-39.4Q31.7,-41.4 26.8,-41.4L25,-41.3Q21.9,-40.2 19.05,-38.55Q16.2,-36.9 13.7,-34.65Q11.2,-32.4 10.45,-29.25Q9.7,-26.1 9.7,-22.2Q10.2,-14.2 14.1,-10.6Q21,-6.5 25.6,-6.2Q30.2,-6.9 34.65,-8.75Q39.1,-10.6 43.5,-12Q44.6,-11.6 45.5,-10.1L45.5,-8.5Q44.3,-5.9 33.1,-2.1Q28.9,-0.8 24.2,-0.6Z"></path><path transform="translate(507 200)" d="M21.1,-0.3Q19,-0.6 17.1,-1.2Q15.2,-1.8 13.8,-3.8Q12.2,-6.7 12.05,-9.85Q11.9,-13 11.4,-16.3Q11.4,-25.6 12,-41.6L7.1,-42.1Q6.1,-41.4 4.8,-41.4Q2.7,-41.4 2,-43.4L2,-45.3L3.7,-47.3Q5.1,-47.5 6.3,-47.5Q9.2,-47.3 12.2,-47.3Q12.6,-51.3 12.75,-58.35Q12.9,-65.4 14.1,-68.9Q14.9,-69.5 16.5,-69.5L18.5,-67.8Q18.7,-67 19,-66.35Q19.3,-65.7 19.3,-64.7Q18.1,-62 18.05,-56.15Q18,-50.3 17.9,-47.6Q20.5,-47.3 26.9,-47.3Q28.4,-46.8 28.9,-45.3L28.9,-43.7Q28.2,-42.1 25.9,-41.6L20.5,-41.6L17.7,-42.1Q17,-25.6 17,-16.3Q17.5,-13.9 17.6,-11.4Q17.7,-8.9 18.6,-6.8Q20.3,-5.9 25.4,-5.9Q28.1,-6.9 31.2,-11.7Q32.1,-12.2 33.7,-12.2Q35.1,-11.7 35.5,-10.3L35.5,-7.9Q33.3,-5 32.05,-3.75Q30.8,-2.5 27.8,-0.6L21.1,-0.3Z"></path><path transform="translate(545 200)" d=""></path><path transform="translate(578 200)" d="M13.4,-0.8L11.8,-0.8L9.9,-2.3L9.1,-6.8L9,-39.1Q9.5,-43.4 9.5,-49.2Q9.3,-53.8 9.3,-57.2L9.4,-61.7L8.2,-67.2L9.4,-69.3Q10.4,-69.8 12,-69.8Q12.8,-69.7 12.9,-69L13.4,-69.7L17.9,-69.5L32.5,-69.7Q38.6,-69.4 45.1,-69.3Q49,-69.1 53,-68.6L55.1,-68.7Q55.6,-68.6 56.2,-68Q56.9,-68 57.1,-67.8L56.7,-67.4Q57,-67.1 57.1,-66.8Q57.1,-63.8 55.1,-63.4L53.7,-63.5L53.5,-63.3Q34.2,-64 14.9,-64.5L14.6,-63.9Q14.9,-62.1 14.9,-56.6Q15.3,-53.7 15.3,-50.9Q15.3,-45.6 14.9,-40.8L14.8,-40.6L27.1,-39.8L33.7,-40L37.6,-39.8L45.8,-40.1Q47.3,-39.6 47.8,-38.2L47.8,-36.7Q47,-35.1 45.8,-34.8L42.5,-34.7Q42.4,-34.4 42.1,-34.4Q34.2,-34.4 31.4,-34.3L31.4,-34.4Q21.9,-34.4 14.5,-35.1L14.5,-25.3Q14.7,-16.3 14.7,-7.2Q15.3,-6 15.3,-2.8Q15.1,-1.4 13.4,-0.8Z"></path><path transform="translate(639 200)" d="M27.7,-6.2Q30.9,-6.8 33.7,-8.2L35.6,-9Q39.6,-11.6 41.4,-14.1Q42.8,-17.9 43,-21.55Q43.2,-25.2 43.2,-29.4Q42,-34.4 38.3,-38.1Q33.1,-41.7 27.7,-41.7Q24.2,-41.1 20.8,-39.95Q17.4,-38.8 14.7,-36.1Q12.3,-33.8 11.3,-30.7Q9.7,-25.9 9.7,-23.7Q9.7,-15.5 15.3,-10.6Q20.5,-6.2 27.7,-6.2ZM25.6,-0.6Q16.3,-1 9.1,-8.8Q4.1,-15.2 4.1,-25.3Q5.6,-35.9 12.3,-41.5Q20.1,-47.4 30.5,-47.4Q32,-47.4 37.9,-44.9Q41.2,-43.5 43.7,-40.6Q48.9,-35.2 48.9,-26.7Q48.9,-21.9 47.5,-15Q46.6,-10.1 42.2,-6.9Q34.9,-0.6 25.6,-0.6Z"></path><path transform="translate(692 200)" d="M11,-0.4L10.2,-0.4Q10.1,-0.5 9.85,-0.6Q9.6,-0.7 9.05,-1.2Q8.5,-1.7 8.4,-2.3L8.2,-6.9L9.5,-39.6L9,-44.6Q9,-47.2 12.9,-47.2Q13.8,-47.2 14.5,-46.5Q15.2,-45.8 15.3,-45.2Q15.3,-41.6 14.8,-38.1Q24.1,-46 33.3,-47.2Q36.2,-46.7 37.95,-45.25Q39.7,-43.8 41.3,-41.6L41.3,-39.9Q40.6,-38.5 39.3,-38L37.6,-38Q35.9,-38.9 34.8,-39.95Q33.7,-41 31.9,-41.3Q23,-39 17,-31.8L14.7,-27.2Q14.2,-22.1 13.95,-15.1Q13.7,-8.1 12.8,-1Q11.9,-0.6 11,-0.4Z"></path><path transform="translate(737 200)" d=""></path><path transform="translate(770 200)" d="M22.8,-0.4L20.9,-1.9Q16.6,-18 12.7,-34.15Q8.8,-50.3 4.1,-67.8Q4.7,-69.5 6,-69.7L8.4,-69.7Q8.9,-69.6 9.5,-69Q10.1,-68.4 10.2,-67.8Q10.2,-66.3 10,-65.6Q17.2,-40.6 23.8,-12.4Q26.3,-23.8 30.7,-36.85Q35.1,-49.9 41.4,-69Q41.8,-69.4 42.4,-69.4L42.6,-69.5L43.9,-69.5Q45.2,-69.3 45.8,-67.6Q49.1,-48.9 53.25,-36.45Q57.4,-24 60.5,-14.1Q66.2,-26.7 71.15,-41.75Q76.1,-56.8 81.3,-69.2Q82.2,-69.7 83.9,-69.7Q85.2,-69.5 85.8,-67.8L85.8,-66.1Q70.1,-22.7 63.2,-5.2Q63.6,-4.6 63.6,-2.6Q63.2,-1.2 61.7,-0.6L60.2,-0.6Q58.9,-1 58,-3Q55.1,-13.6 50.85,-26.55Q46.6,-39.5 42.5,-53.2Q36.6,-39.2 33,-25.8Q29.4,-12.4 25.4,-1Q24.7,-0.5 22.8,-0.4Z"></path><path transform="translate(860 200)" d="M12.2,-29.4Q18.4,-30 24.8,-30.2Q31.2,-30.4 37.4,-31Q36.6,-35.8 33.5,-38.9Q28.2,-41.7 25.5,-41.7Q22.6,-41.7 14.7,-36.7Q12.9,-34.2 11.4,-29.4L12.2,-29.4ZM24.2,-0.6Q21.6,-0.6 16,-2.7Q12.6,-4 9.7,-6.6Q4.3,-12.2 4.3,-19.3Q4.3,-33.1 11.6,-41.5Q15.3,-43.8 19.2,-45.7Q22.6,-47.4 27.5,-47.4Q35.8,-45.3 39.4,-40.8Q43,-35.1 43.7,-28.4L42.4,-26.3Q34.7,-24.8 26.55,-24.55Q18.4,-24.3 10.3,-23.8L10.1,-17Q11.4,-13 14.1,-10.1Q20.3,-6.2 26.3,-6.2Q35.5,-8.3 44.5,-16.4L46,-16.4Q47.6,-15.9 48,-14.5L48,-12.9Q45.4,-9.2 41.6,-6.8Q31.9,-0.6 24.2,-0.6Z"></path><path transform="translate(912 200)" d="M31.8,-6.2Q34.4,-6.8 39.7,-9Q43.1,-11.3 45.5,-14.1Q46.9,-17.9 47.05,-21.55Q47.2,-25.2 47.2,-29.4Q46.1,-34.4 42.4,-38.1Q37,-41.7 31.8,-41.7Q28.3,-41.1 24.9,-39.95Q21.5,-38.8 18.8,-36.1Q16.3,-33.8 15.35,-30.7Q14.4,-27.6 13.9,-25.3L13.9,-22.4Q14.2,-15.1 19.3,-10.65Q24.4,-6.2 31.8,-6.2ZM29.7,-0.6Q20.8,-1 14,-8L13.9,-5.6Q14.6,-4.5 14.6,-3.7L14.4,-3Q14,-1.8 12.3,-0.8L10.7,-0.8Q9.5,-1.2 8.8,-2.8L8.2,-4.6L8.2,-37.7L8.6,-41.3Q8.6,-51.9 8.8,-62.4Q9.4,-64.2 9.4,-66.05Q9.4,-67.9 10.5,-69.2Q11.7,-69.7 13,-69.7Q13.7,-69.7 14.25,-69.05Q14.8,-68.4 14.9,-67.8L14.9,-64.9L14.4,-62.4Q14.4,-43.3 14,-39.3Q15.1,-40.5 16.4,-41.5Q24.2,-47.4 34.6,-47.4Q36.1,-47.4 42,-44.9Q45.3,-43.5 47.8,-40.6Q52.9,-35.1 52.9,-27Q52.9,-21.6 51.6,-15Q50.7,-10.1 46.3,-6.9Q39,-0.6 29.7,-0.6Z"></path></svg>